
<!-- Generator: visioncortex VTracer 0.6.4 -->
<svg version="1.1" xmlns="http://www.w3.org/2000/svg" viewBox="0 0 5330 1582" preserveAspectRatio="xMidYMid meet">
<path d="M0 0 C7.879 11.293 5.114 33.078 2.925 45.878 C-3.031 75.635 -17.817 102.966 -31.625 129.688 C-54.523 169.055 -54.523 169.055 -58.301 212.43 C-56.26 217.131 -53.641 219.679 -49 222 C-40.292 225.167 -29.456 225.631 -20.688 222.5 C-0.017 212.644 10.293 189.269 17.688 168.875 C23.397 152.622 27.783 136.044 31.876 119.323 C52.055 36.959 52.055 36.959 77 15 C81.596 12.348 84.663 11.333 90 12 C95.538 15.077 95.538 15.077 97 18 C100.024 64.472 76.298 125.531 57.102 167.112 C46.832 189.479 42.853 213.721 40 238 C39.848 239.27 39.695 240.54 39.538 241.849 C37.138 262.762 36.734 283.582 36.75 304.625 C36.751 305.919 36.751 307.212 36.752 308.545 C36.759 312.23 36.775 315.916 36.797 319.602 C36.801 320.724 36.806 321.846 36.81 323.002 C36.824 324.542 36.824 324.542 36.839 326.112 C36.846 327.011 36.853 327.911 36.86 328.838 C36.863 331.049 36.863 331.049 38 333 C48.093 314.868 56.155 295.919 63.689 276.6 C67.835 265.985 72.376 255.641 77.312 245.375 C77.609 244.753 77.906 244.131 78.212 243.49 C81.358 236.921 84.507 230.749 89 225 C92.875 225.875 92.875 225.875 94 227 C94.264 235.508 91.489 243.131 88.596 250.988 C82.14 268.589 76.996 286.511 72.073 304.592 C65.456 328.646 54.959 366.336 32.375 380.562 C28.799 382.086 26.823 382.665 23 382 C19.194 380.053 17.7 377.871 16.375 373.938 C10.378 350.594 9.993 326.119 9.445 302.165 C9.913 267.83 9.913 267.83 2 235 C-9.316 237.556 -19.28 243.474 -28.875 249.812 C-36.626 254.842 -44.078 257.389 -53.336 255.531 C-64.744 252.508 -75.781 246.337 -82.184 236.109 C-83.606 232.433 -83.905 228.566 -84.438 224.68 C-84.774 221.861 -84.774 221.861 -87 220 C-95.846 220 -102.576 225.891 -109.341 231 C-126.219 243.709 -144.59 251.209 -166 249 C-172.779 247.616 -177.67 245.39 -181.871 239.801 C-183 238 -183 238 -184.562 234.812 C-186.322 231.369 -187.588 229.855 -191 228 C-206.456 227.019 -221.935 242.61 -233.34 251.641 C-239.149 256.221 -245.044 260.447 -251.312 264.375 C-251.958 264.78 -252.604 265.185 -253.27 265.602 C-267.219 274.174 -267.219 274.174 -274 273 C-278.415 269.301 -279.299 264.482 -280 259 C-280.837 248.369 -279.414 236.34 -274 227 C-271.87 224.693 -269.523 222.858 -267 221 C-261.193 216.138 -259.014 210.142 -257.25 202.938 C-256.607 195.383 -256.764 189.021 -260 182 C-260.66 181.34 -261.32 180.68 -262 180 C-267.039 180.233 -270.6 182.253 -274.688 185 C-275.3 185.404 -275.912 185.807 -276.543 186.223 C-282.345 190.114 -287.703 194.449 -293 199 C-294.17 199.985 -295.34 200.97 -296.512 201.953 C-302.309 206.844 -307.936 211.78 -313.23 217.219 C-316.325 220.334 -319.662 223.151 -323 226 C-323.911 226.801 -324.823 227.601 -325.762 228.426 C-368.555 265.727 -368.555 265.727 -390.82 265.469 C-393 265 -393 265 -395 262 C-395.353 257.018 -394.651 252.851 -393.312 248.062 C-393.135 247.418 -392.958 246.773 -392.776 246.109 C-391.837 242.746 -390.824 239.416 -389.727 236.102 C-384.253 219.554 -378.482 198.69 -386 182 C-386.66 181.34 -387.32 180.68 -388 180 C-393.166 180.21 -396.74 182.382 -400.875 185.25 C-401.519 185.688 -402.163 186.126 -402.827 186.578 C-409.928 191.498 -416.573 196.97 -423.199 202.503 C-425.714 204.593 -428.265 206.637 -430.812 208.688 C-434.45 211.658 -437.931 214.746 -441.375 217.938 C-466.169 240.68 -466.169 240.68 -479.113 241.062 C-489.129 240.509 -495.641 234.66 -502.711 228.094 C-507.428 223.674 -507.428 223.674 -513.43 221.73 C-518.883 222.302 -522.601 227.314 -525.941 231.34 C-527.252 233.016 -528.561 234.695 -529.867 236.375 C-537.075 245.246 -544.82 252.847 -556 256 C-562.624 256.619 -569.484 257.171 -575 253 C-582.054 246.4 -584.099 238.814 -585.438 229.5 C-586.411 223.333 -587.679 218.382 -591 213 C-594.918 212.412 -597.331 212.885 -600.5 215.125 C-603.921 217.86 -606.912 220.934 -609.949 224.077 C-619.395 233.838 -628.894 241.225 -642.875 242.75 C-654.907 244.525 -665.606 249.668 -676.34 255.163 C-686.629 260.406 -698.433 265.563 -710.102 261.824 C-717.868 258.452 -722.057 253.121 -725.461 245.426 C-728.551 237.397 -729.474 228.595 -730.63 220.116 C-730.904 217.953 -730.904 217.953 -732 216 C-736.967 216.465 -739.492 217.759 -743.25 221 C-744.2 221.812 -745.15 222.624 -746.129 223.461 C-749.662 226.585 -753.188 229.715 -756.676 232.891 C-758.72 234.746 -760.788 236.568 -762.875 238.375 C-776.402 250.201 -789.896 262.397 -801.039 276.543 C-802.882 278.852 -804.81 281.017 -806.812 283.188 C-816.413 293.897 -824.366 305.852 -832 318 C-839.453 329.599 -847.492 340.516 -856.848 350.66 C-858.967 352.964 -861.014 355.32 -863.062 357.688 C-872.239 367.982 -886.968 382.719 -901.438 383.562 C-905 383 -905 383 -907 381.375 C-908.283 378.328 -908.276 376.299 -908 373 C-906.637 370.098 -906.637 370.098 -904.688 367.062 C-904.331 366.506 -903.974 365.95 -903.606 365.376 C-895.739 353.292 -886.749 342.084 -877.605 330.956 C-832.65 279.188 -832.65 279.188 -815 216 C-815.453 213.709 -815.453 213.709 -816 212 C-827.968 212 -838.304 224.537 -846.391 232.351 C-848.042 234.043 -849.565 235.8 -851.082 237.613 C-857.497 245.25 -867.979 254.926 -878.305 256.309 C-885.065 256.648 -885.065 256.648 -887.73 254.801 C-891.376 250.557 -892.035 246.527 -892.5 241.156 C-892.582 240.24 -892.665 239.323 -892.75 238.379 C-892.917 236.46 -893.083 234.54 -893.25 232.621 C-893.332 231.705 -893.415 230.788 -893.5 229.844 C-893.572 229.01 -893.644 228.177 -893.719 227.318 C-893.983 225.14 -894.417 223.112 -895 221 C-898.609 220.856 -901.498 220.829 -904.938 222 C-908.936 223.306 -911.797 223.345 -916 223 C-918.062 221.938 -918.062 221.938 -919 220 C-919.28 206.259 -904.444 193.537 -895.587 184.302 C-890.874 179.5 -885.897 175.118 -880.625 170.938 C-880.054 170.484 -879.483 170.031 -878.895 169.564 C-873.132 165.12 -868.314 162.332 -860.988 162.578 C-859 163 -859 163 -857 165.25 C-852.141 178.612 -855.551 194.295 -857.5 208 C-857.742 209.758 -857.983 211.515 -858.223 213.273 C-858.804 217.517 -859.398 221.759 -860 226 C-851.773 218.401 -843.664 210.731 -835.787 202.768 C-832.312 199.269 -828.755 195.956 -824.988 192.77 C-822.385 190.452 -819.947 187.979 -817.5 185.5 C-813.158 181.119 -808.75 176.936 -804 173 C-803.464 172.55 -802.927 172.1 -802.375 171.636 C-781.04 153.795 -781.04 153.795 -771 154 C-768.844 155.121 -768.844 155.121 -767 157 C-763.731 172.916 -772.724 190.029 -778.394 204.366 C-781.798 213.112 -784.28 221.783 -786 231 C-773.719 225.842 -763.699 215.976 -754.133 206.922 C-751.898 204.81 -749.605 202.786 -747.273 200.782 C-743.175 197.204 -739.321 193.433 -735.5 189.562 C-734.82 188.879 -734.14 188.195 -733.439 187.49 C-731.29 185.329 -729.145 183.165 -727 181 C-724.17 178.143 -721.336 175.289 -718.5 172.438 C-717.55 171.475 -717.55 171.475 -716.58 170.492 C-712.226 166.115 -707.687 162.017 -703 158 C-701.614 156.792 -701.614 156.792 -700.199 155.559 C-689.075 146.165 -679.677 141.075 -665 142 C-660.099 142.691 -655.279 143.663 -650.438 144.688 C-649.188 144.932 -647.938 145.176 -646.65 145.428 C-629.609 148.965 -629.609 148.965 -624.308 154.892 C-619.311 162.946 -620.947 173.631 -621.375 182.688 C-621.492 185.42 -621.602 188.154 -621.711 190.887 C-621.739 191.553 -621.766 192.219 -621.795 192.906 C-622.071 199.938 -622.057 206.963 -622 214 C-617.358 208.932 -612.958 203.743 -608.75 198.312 C-604.429 192.743 -599.947 187.347 -595.323 182.027 C-592.447 178.712 -589.694 175.342 -587 171.875 C-582.367 166.19 -577.266 160.975 -572.125 155.75 C-571.299 154.898 -570.472 154.046 -569.621 153.167 C-563.201 146.728 -555.466 139.013 -546 138 C-543 139 -543 139 -542 141 C-541.445 148.028 -543.187 153.719 -545.312 160.375 C-552.774 184.937 -553.531 208.483 -552 234 C-540.525 221.741 -540.525 221.741 -529.547 209.039 C-523.612 201.921 -517.39 195.154 -510.875 188.562 C-510.148 187.818 -509.42 187.073 -508.671 186.305 C-502.495 180.136 -494.878 172.614 -486 171 C-482.925 171.181 -480.849 171.454 -478.25 173.125 C-475.006 177.991 -474.758 183.758 -474.562 189.438 C-474.176 196.177 -473.719 201.677 -469.312 207.062 C-465.643 208.55 -462.653 208.239 -459 207 C-455.438 204.944 -452.232 202.537 -449 200 C-447.989 199.257 -446.979 198.515 -445.938 197.75 C-441.875 194.241 -438.683 189.887 -435.358 185.7 C-433.88 183.85 -432.383 182.016 -430.883 180.184 C-425.741 173.902 -420.652 167.597 -415.75 161.125 C-399.403 139.702 -399.403 139.702 -390 135 C-385.447 134.562 -382.429 134.743 -378.715 137.551 C-374.712 140.934 -370.828 144.419 -367 148 C-365.668 149.216 -365.668 149.216 -364.309 150.457 C-356.969 157.403 -351.399 164.903 -350.817 175.264 C-350.732 185.656 -351.819 195.561 -353.438 205.812 C-353.899 208.818 -354.355 211.825 -354.809 214.832 C-354.917 215.542 -355.025 216.252 -355.136 216.983 C-355.984 222.641 -356.593 228.295 -357 234 C-355.784 232.857 -355.784 232.857 -354.543 231.691 C-349.398 226.884 -344.269 222.13 -338.75 217.75 C-332.938 213.09 -327.574 207.989 -322.188 202.847 C-318.161 199.005 -314.07 195.272 -309.865 191.626 C-307.175 189.28 -304.553 186.866 -301.938 184.438 C-301.391 183.931 -300.844 183.425 -300.281 182.904 C-296.054 178.987 -291.839 175.057 -287.625 171.125 C-286.688 170.252 -286.688 170.252 -285.733 169.362 C-282.53 166.375 -279.34 163.376 -276.172 160.352 C-246.835 132.444 -246.835 132.444 -231 132 C-227.562 132.938 -227.562 132.938 -225 135 C-212.769 157.55 -227.573 193.721 -234.193 216.216 C-235.52 220.795 -236.761 225.397 -238 230 C-224.109 227.515 -211.35 217.033 -203 206 C-195.173 194.728 -190.904 181.839 -186.145 169.07 C-178.515 148.605 -168.694 126.695 -147.648 116.906 C-141.26 114.535 -135.881 114.184 -129.25 116.062 C-125.186 118.485 -123.22 120.485 -122 125 C-119.739 144.044 -127.465 160.226 -139.035 175.017 C-140.797 177.246 -142.571 179.465 -144.348 181.682 C-155.294 194.837 -155.294 194.837 -159 211 C-156.086 216.225 -152.327 218.41 -146.727 220.359 C-137.22 222.593 -128.819 219.031 -120.726 214.139 C-104.107 203.168 -93.417 185.547 -88.75 166.5 C-88.156 164.205 -87.561 161.911 -86.965 159.617 C-86.493 157.78 -86.493 157.78 -86.011 155.905 C-52.486 25.931 -52.486 25.931 -16.969 1.125 C-11.32 -2.103 -6.042 -2.844 0 0 Z M-26 68 C-40.533 82.897 -57.938 120.358 -59.199 141.309 C-59.174 143.969 -59.174 143.969 -58 146 C-49.16 143.437 -44.98 131.806 -40.773 124.25 C-27.722 100.535 -27.722 100.535 -22.938 74.25 C-22.947 73.265 -22.956 72.28 -22.965 71.266 C-22.976 70.518 -22.988 69.77 -23 69 C-23.99 68.67 -24.98 68.34 -26 68 Z M-680 191 C-690.196 201.629 -695.474 213.405 -695.27 228.078 C-694.892 232.169 -693.716 235.283 -692 239 C-686.988 240.595 -684.123 239.936 -679.375 237.688 C-663.369 229.003 -651.85 217.55 -646 200 C-645.498 194.76 -645.396 190.352 -647.562 185.5 C-650.606 182.378 -652.881 181.373 -657 180 C-665.988 180 -673.528 185.293 -680 191 Z " fill="#000000" transform="translate(3750,1192)"/>
<path d="M0 0 C3.08 3.08 3.162 6.255 3.234 10.488 C3.158 16.63 1.797 22.268 0.25 28.188 C-0.058 29.388 -0.366 30.589 -0.683 31.826 C-6.149 52.81 -12.836 73.489 -19.641 94.07 C-20.865 97.776 -22.089 101.482 -23.312 105.188 C-23.76 106.544 -23.76 106.544 -24.217 107.928 C-39.026 148.199 -39.026 148.199 -34 189 C-30.735 194.939 -27.207 199.896 -21 203 C-14.954 203.864 -11.798 202.067 -7.066 198.641 C-4.481 196.588 -2.213 194.452 0 192 C0.458 191.523 0.915 191.046 1.387 190.555 C11.369 179.708 16.095 166.841 17.875 152.375 C19.38 141.618 25.044 133.096 32 125 C33.036 123.747 33.036 123.747 34.094 122.469 C39.131 116.58 44.35 111.986 51 108 C51.718 107.566 52.436 107.131 53.176 106.684 C60.322 102.934 68.204 102.755 75.949 104.766 C80.463 106.426 83.507 107.725 86 112 C89.205 126.656 77.795 141.167 70.371 152.816 C65.263 160.721 59.919 168.453 54.489 176.139 C53.462 177.594 52.439 179.05 51.418 180.509 C50.461 181.877 49.498 183.24 48.527 184.599 C45.965 188.265 44.03 191.575 43 196 C44.753 200.601 47.785 202.649 52 205 C57.225 206.803 61.74 207.285 67.188 207.188 C68.235 207.187 68.235 207.187 69.303 207.186 C72.711 207.156 75.718 206.856 79 206 C81.164 205.882 83.332 205.825 85.5 205.812 C87.186 205.791 87.186 205.791 88.906 205.77 C91.906 205.993 93.574 206.255 96 208 C97.248 212.057 97.411 214.143 95.562 218 C86.327 228.812 73.827 234.919 59.603 236.219 C46.44 236.851 34.876 236.585 24.5 227.562 C22.092 225.254 20.038 223.054 18.094 220.34 C15.482 217.421 13.864 216.615 10 216 C6.627 217.023 6.627 217.023 3.312 218.938 C2.396 219.422 2.396 219.422 1.461 219.915 C-2.372 221.977 -6.004 224.27 -9.625 226.688 C-18.564 232.498 -28.299 235.636 -39 234 C-47.905 231.236 -53.386 225.797 -57.773 217.746 C-62.375 208.503 -65.733 198.777 -69 189 C-74.279 193.156 -78.301 197.694 -82.48 202.941 C-85.205 206.249 -88.068 209.377 -91 212.5 C-94.724 216.471 -98.283 220.496 -101.688 224.75 C-105.186 229.114 -108.92 233.062 -112.957 236.93 C-115.069 238.991 -115.069 238.991 -116.934 241.477 C-120.656 246.022 -125.364 249.43 -130 253 C-130.708 253.547 -131.415 254.093 -132.145 254.656 C-137.096 258.126 -141.934 259.491 -148 259 C-153.429 257.405 -156.901 254.773 -160 250 C-160.426 246.809 -160.426 246.809 -160.312 243.438 C-160.288 242.322 -160.264 241.207 -160.238 240.059 C-160.042 237.538 -159.661 235.42 -159 233 C-158.6 228.023 -158.6 228.023 -160.5 223.562 C-160.995 223.047 -161.49 222.531 -162 222 C-165.922 222.238 -167.599 222.609 -170.457 225.398 C-171.234 226.381 -172.012 227.363 -172.812 228.375 C-178.2 234.566 -181.836 236.531 -189.879 237.262 C-200.821 237.667 -209.458 234.851 -218 228 C-220.399 225.601 -221.851 223.291 -223.391 220.277 C-224.156 218.779 -224.156 218.779 -224.938 217.25 C-225.4 216.286 -225.863 215.322 -226.34 214.328 C-227.81 211.838 -227.81 211.838 -230.367 210.992 C-238.33 211.016 -245.783 219.436 -251.281 224.543 C-264.585 236.566 -281.997 251.255 -300.551 252.129 C-304.093 251.942 -306.196 251.173 -309 249 C-312.687 244.169 -312.432 238.777 -312.594 232.926 C-313.047 229.659 -313.641 229.107 -316 227 C-324.289 230.251 -332.004 234.064 -339.75 238.438 C-367.537 253.749 -367.537 253.749 -378 251 C-380.534 249.021 -380.945 248.32 -381.5 245.062 C-381.248 239.334 -378.291 234.15 -376 229 C-368.293 211.361 -364.325 190.641 -371 172 C-372.514 169.393 -373.365 168.631 -376 167 C-396.256 169.127 -420.618 201.143 -433.518 215.369 C-434.84 216.824 -436.177 218.264 -437.516 219.703 C-443.458 226.144 -448.797 232.96 -454 240 C-454.587 240.755 -455.173 241.511 -455.777 242.289 C-458.327 245.835 -459.338 248.274 -459.062 252.688 C-458.088 258 -455.431 260.744 -451.438 264.25 C-442.667 274.145 -444.44 290.84 -444.825 303.135 C-445.721 317.824 -453.649 331.023 -463 342 C-463.593 342.737 -464.186 343.475 -464.797 344.234 C-475.162 356.656 -491.625 367.864 -508 370 C-511.584 370.238 -515.159 370.333 -518.75 370.375 C-519.65 370.389 -520.55 370.403 -521.477 370.418 C-527.07 370.377 -531.065 369.688 -536 367 C-541.995 359.606 -540.683 347.028 -540 338 C-537.806 322.247 -529.981 307.703 -521.175 294.731 C-508.527 277.765 -508.527 277.765 -505 258 C-506.539 254.109 -508.497 250.481 -510.5 246.812 C-511.047 245.79 -511.593 244.768 -512.156 243.715 C-516.052 236.518 -520.123 229.583 -525 223 C-525.446 222.372 -525.892 221.744 -526.352 221.098 C-530.018 216.26 -534.99 213.073 -541 212 C-543.189 211.964 -545.378 211.985 -547.566 212.043 C-548.857 212.064 -550.148 212.086 -551.479 212.107 C-553.51 212.144 -555.541 212.187 -557.573 212.247 C-566.195 212.489 -574.347 212.445 -582 208 C-583.857 205.985 -585.29 204.061 -586.684 201.707 C-587.901 199.909 -587.901 199.909 -589.785 198.949 C-592.823 199.019 -594.386 200.443 -596.572 202.444 C-598.843 204.919 -600.335 207.675 -601.75 210.688 C-602.059 211.338 -602.368 211.988 -602.686 212.657 C-605.624 218.991 -608.214 225.432 -610.715 231.949 C-611.149 233.081 -611.584 234.212 -612.031 235.378 C-616.227 246.415 -619.995 257.58 -623.705 268.788 C-629.129 285.13 -634.627 301.424 -641.125 317.375 C-641.85 319.168 -641.85 319.168 -642.589 320.997 C-645.179 327.207 -648.017 333.287 -651.055 339.289 C-651.53 340.271 -651.53 340.271 -652.015 341.273 C-653.537 344.19 -654.422 345.777 -657.551 346.986 C-661.125 347.007 -663.05 345.988 -666 344 C-677.611 325.182 -668.232 292.761 -665.45 271.87 C-662.635 250.724 -660 229.374 -660 208 C-670.523 210.44 -679.452 215.135 -688.887 220.246 C-690.59 221.166 -692.295 222.084 -694 223 C-694.885 223.476 -695.771 223.951 -696.683 224.442 C-697.551 224.894 -698.418 225.346 -699.312 225.812 C-700.473 226.424 -700.473 226.424 -701.656 227.047 C-705.635 228.665 -709.825 229.017 -714 228 C-719.558 224.504 -722.832 218.918 -726.451 213.58 C-728.734 210.378 -730.282 208.34 -733.879 206.637 C-741.363 207.508 -747.262 214.931 -752.5 219.938 C-753.817 221.178 -755.135 222.417 -756.453 223.656 C-757.635 224.771 -758.818 225.885 -760 227 C-768.742 235.221 -779.178 243.774 -791.625 244.438 C-797.456 244.207 -800.595 241.493 -804.512 237.332 C-807.239 234 -808.45 230.426 -809.562 226.312 C-809.976 224.895 -810.391 223.479 -810.809 222.062 C-811.008 221.373 -811.208 220.683 -811.414 219.973 C-812.232 217.221 -813.159 214.516 -814.125 211.812 C-814.416 210.994 -814.708 210.175 -815.008 209.332 C-816.133 206.688 -817.355 204.359 -819 202 C-824.871 200.203 -830.194 201.586 -836 203 C-837.102 201.262 -837.102 201.262 -838 199 C-832.432 175.859 -800.931 140.911 -781.363 128.301 C-777.402 126.14 -774.94 124.951 -770.375 125.188 C-769.591 125.456 -768.807 125.724 -768 126 C-767.652 132.909 -768.412 138.376 -770.688 144.875 C-774.84 157.625 -776.946 170.775 -779 184 C-779.115 184.735 -779.23 185.47 -779.348 186.228 C-780.122 191.708 -780.219 197.163 -780.25 202.688 C-780.271 203.611 -780.291 204.535 -780.312 205.486 C-780.341 210.494 -780.266 213.918 -777 218 C-767.667 217.059 -762.169 209.59 -756.525 202.714 C-751.637 196.619 -747.066 190.332 -742.585 183.935 C-738.789 178.576 -734.54 173.744 -730 169 C-729.383 168.331 -728.765 167.662 -728.129 166.973 C-723.472 162.067 -719.242 158.44 -712.312 157.5 C-708.444 158.084 -707.304 158.898 -705 162 C-703.899 165.303 -703.786 168.025 -703.625 171.5 C-703.014 182.171 -703.014 182.171 -698.711 191.738 C-696.453 193.403 -694.788 193.757 -692 194 C-680.342 191.653 -671.107 181.977 -664 173 C-662.863 171.583 -662.863 171.583 -661.703 170.137 C-646.423 150.84 -634.612 129.338 -622.688 107.875 C-617.772 99.029 -612.736 90.344 -607 82 C-606.479 81.232 -605.958 80.463 -605.422 79.672 C-604 78 -604 78 -601.438 77.562 C-600.633 77.707 -599.829 77.851 -599 78 C-596.5 81.75 -597.052 84.066 -597.668 88.293 C-597.815 89.364 -597.815 89.364 -597.964 90.456 C-598.983 97.515 -600.54 104.406 -602.312 111.312 C-602.48 111.974 -602.647 112.635 -602.819 113.317 C-606.421 127.532 -610.702 141.537 -614.994 155.556 C-622.157 178.961 -629.247 202.436 -634.688 226.312 C-634.932 227.367 -635.176 228.421 -635.427 229.508 C-636.784 235.758 -637.292 241.609 -637 248 C-636.01 247.67 -635.02 247.34 -634 247 C-632.909 244.655 -632.017 242.415 -631.176 239.98 C-630.918 239.264 -630.66 238.547 -630.395 237.809 C-629.584 235.544 -628.79 233.273 -628 231 C-627.512 229.611 -627.025 228.223 -626.537 226.834 C-625.573 224.081 -624.616 221.326 -623.663 218.569 C-618.666 204.128 -613.492 189.851 -607 176 C-606.47 174.857 -605.94 173.713 -605.395 172.535 C-601.983 165.721 -597.483 159.494 -590 157 C-582.955 156.258 -577.842 157.991 -572 162 C-566.183 166.851 -562.79 172.376 -559.375 179.062 C-556.351 184.907 -553.442 190.117 -549 195 C-545.799 194.749 -544.9 193.894 -542.66 191.508 C-541.782 190.39 -540.917 189.261 -540.062 188.125 C-539.353 187.201 -539.353 187.201 -538.629 186.259 C-532.422 178.074 -526.736 169.517 -521 161 C-514.298 151.08 -507.441 141.381 -500 132 C-499.296 131.102 -498.592 130.203 -497.867 129.277 C-468.563 92.566 -468.563 92.566 -450.051 89.145 C-447.229 88.946 -445.387 89.508 -443 91 C-440.596 95.807 -441.473 101.27 -442.988 106.246 C-450.581 125.089 -464.362 141.219 -478 156 C-487.301 166.174 -496.897 176.974 -498.312 191.125 C-497.221 204.66 -488.51 215.441 -480.09 225.473 C-477.55 228.544 -475.26 231.72 -473 235 C-466.9 228.467 -460.983 221.869 -455.371 214.906 C-452.674 211.6 -449.908 208.359 -447.125 205.125 C-446.615 204.531 -446.105 203.938 -445.58 203.326 C-443.59 201.009 -441.6 198.693 -439.601 196.383 C-432.259 187.893 -425.376 179.11 -418.627 170.142 C-417.048 168.063 -415.441 166.008 -413.824 163.957 C-408.575 157.232 -404.143 150.667 -400.375 143 C-396.818 135.831 -392.979 131.199 -386 127 C-384.981 126.346 -384.981 126.346 -383.941 125.68 C-378.486 122.54 -372.149 120.947 -365.938 122.523 C-354.253 127.659 -344.149 139.831 -338.691 151.113 C-331.114 171.79 -339.626 200.083 -343 221 C-341.689 219.78 -341.689 219.78 -340.352 218.535 C-339.184 217.452 -338.016 216.368 -336.848 215.285 C-336.274 214.751 -335.701 214.217 -335.11 213.667 C-331.648 210.46 -328.12 207.392 -324.438 204.438 C-320.485 201.265 -316.709 197.952 -313 194.5 C-308.412 190.231 -303.666 186.242 -298.781 182.312 C-295.76 179.8 -292.876 177.176 -290 174.5 C-284.522 169.416 -278.823 164.681 -273 160 C-271.771 158.992 -270.543 157.983 -269.316 156.973 C-215.917 113.075 -215.917 113.075 -199.168 111.781 C-197 112 -197 112 -196 113 C-195.288 121.511 -200.678 127.251 -205.867 133.52 C-215.702 145.12 -226.14 156.232 -236.938 166.938 C-241.505 171.471 -245.891 176.047 -250 181 C-250.48 181.561 -250.959 182.121 -251.454 182.699 C-258.561 191.01 -264.776 198.815 -269 209 C-257.816 204.717 -248.686 196.976 -239.746 189.172 C-214.976 167.554 -214.976 167.554 -202.75 165.438 C-198.736 166.259 -197.416 167.711 -195 171 C-193.007 176.112 -192.875 181.515 -192.562 186.938 C-192.162 193.663 -191.033 199.934 -188 206 C-171.837 203.965 -153.956 184.858 -141.969 174.535 C-139.228 172.195 -136.441 169.936 -133.625 167.688 C-128.352 163.402 -123.406 158.807 -118.477 154.135 C-115.469 151.287 -112.437 148.499 -109.289 145.805 C-104.187 141.369 -99.415 136.601 -94.637 131.822 C-93.074 130.261 -91.503 128.709 -89.932 127.156 C-81.115 118.39 -73.224 109.051 -66.062 98.875 C-65.615 98.256 -65.167 97.638 -64.705 97 C-53.89 81.707 -45.78 64.86 -37.604 48.072 C-13.429 -1.46 -13.429 -1.46 0 0 Z M-86.199 152.992 C-99.464 167.164 -121.635 193.718 -123 214 C-122.34 214.99 -121.68 215.98 -121 217 C-105.511 213.515 -94.124 192.505 -86 180 C-83.768 176.411 -81.616 172.783 -79.5 169.125 C-79.008 168.282 -78.516 167.439 -78.009 166.571 C-74.683 160.693 -71.641 154.583 -70 148 C-70.495 146.515 -70.495 146.515 -71 145 C-76.897 145 -81.954 149.147 -86.199 152.992 Z M-499.977 297.887 C-510.817 308.814 -523.236 325.163 -523.312 341.125 C-523.226 345.202 -522.704 347.796 -520 351 C-516.603 353.265 -515.105 353.166 -511.168 352.527 C-497.274 349.148 -482.843 334.694 -475.438 322.75 C-474.594 321.183 -473.778 319.6 -473 318 C-472.664 317.348 -472.327 316.695 -471.98 316.023 C-469.121 309.677 -468.773 302.269 -470.691 295.594 C-472.775 290.92 -475.366 288.366 -480 286 C-488.182 286 -494.431 292.514 -499.977 297.887 Z " fill="#000000" transform="translate(2636,1205)"/>
<path d="M0 0 C8.768 7.893 17.048 16.281 25.336 24.672 C28.366 23.32 30.421 21.817 32.727 19.441 C33.661 18.489 33.661 18.489 34.615 17.518 C35.265 16.847 35.916 16.176 36.586 15.484 C59.429 -7.679 84.973 -20.753 117.898 -21.578 C144.891 -20.932 165.425 -11.036 184.062 8.16 C211.299 38.251 211.736 83.867 212.881 122.068 C212.902 122.775 212.924 123.482 212.946 124.211 C213.393 139.231 213.469 154.242 213.437 169.269 C213.431 172.824 213.43 176.379 213.429 179.934 C213.426 186.606 213.418 193.277 213.408 199.948 C213.394 209.006 213.389 218.064 213.383 227.122 C213.374 241.306 213.354 255.489 213.336 269.672 C189.576 269.672 165.816 269.672 141.336 269.672 C141.275 259.004 141.215 248.335 141.152 237.344 C141.112 230.553 141.071 223.763 141.029 216.973 C140.963 206.213 140.898 195.454 140.839 184.695 C140.795 176.856 140.749 169.017 140.699 161.178 C140.673 157.035 140.648 152.893 140.627 148.751 C140.878 118.428 140.878 118.428 138.086 88.297 C137.957 87.476 137.827 86.655 137.694 85.809 C134.711 68.242 126.477 53.549 111.895 42.887 C101.429 36.221 90.478 33.764 78.191 36.328 C65.272 40.176 54.73 48.736 48.102 60.484 C47.377 61.853 46.663 63.228 45.961 64.609 C45.478 65.557 45.478 65.557 44.986 66.523 C40.707 75.448 38.907 84.905 37.773 94.672 C37.65 95.697 37.528 96.721 37.401 97.777 C34.078 126.553 33.226 155.476 33.02 184.418 C32.999 186.896 32.978 189.374 32.957 191.853 C32.902 198.292 32.852 204.731 32.804 211.17 C32.744 218.941 32.678 226.711 32.613 234.482 C32.516 246.212 32.427 257.942 32.336 269.672 C11.876 269.672 -8.584 269.672 -29.664 269.672 C-30.789 258.422 -30.789 258.422 -30.923 253.542 C-30.955 252.434 -30.987 251.327 -31.02 250.186 C-31.051 249.005 -31.081 247.824 -31.113 246.608 C-31.168 244.655 -31.223 242.702 -31.279 240.749 C-31.337 238.666 -31.393 236.582 -31.449 234.498 C-31.568 230.106 -31.692 225.714 -31.817 221.323 C-32.149 209.615 -32.473 197.907 -32.795 186.199 C-33.828 144.325 -33.828 144.325 -35.707 102.484 C-35.821 100.513 -35.821 100.513 -35.937 98.501 C-37.035 81.207 -38.137 63.984 -51.664 51.672 C-63.117 42.141 -74.565 35.424 -89.906 36.266 C-105.444 37.945 -119.016 50.998 -128.664 62.672 C-138.559 77.212 -138.697 95.722 -139.207 112.694 C-139.228 113.361 -139.248 114.029 -139.27 114.716 C-139.745 130.171 -139.881 145.625 -139.967 161.085 C-139.99 164.926 -140.017 168.767 -140.043 172.608 C-140.093 179.825 -140.138 187.041 -140.181 194.258 C-140.241 204.05 -140.307 213.842 -140.372 223.634 C-140.475 238.98 -140.569 254.326 -140.664 269.672 C-164.094 269.672 -187.524 269.672 -211.664 269.672 C-211.664 176.282 -211.664 82.892 -211.664 -13.328 C-156.116 -13.328 -156.116 -13.328 -151.289 -9.391 C-148.283 -5.575 -148.482 -1.958 -148.348 2.746 C-148.327 3.43 -148.306 4.114 -148.285 4.818 C-148.219 6.999 -148.16 9.179 -148.102 11.359 C-148.058 12.839 -148.015 14.319 -147.971 15.799 C-147.864 19.423 -147.762 23.047 -147.664 26.672 C-145.809 24.673 -143.955 22.673 -142.102 20.672 C-141.546 20.074 -140.99 19.476 -140.417 18.86 C-137.607 15.825 -134.893 12.763 -132.289 9.547 C-118.07 -6.817 -95.128 -18.712 -73.664 -21.328 C-72.862 -21.436 -72.06 -21.545 -71.234 -21.656 C-44.475 -24.824 -20.21 -17.661 0 0 Z " fill="#000000" transform="translate(894.6640625,763.328125)"/>
<path d="M0 0 C15.003 1.297 30.003 2.631 45 4 C45.903 4.082 46.805 4.164 47.735 4.249 C129.932 11.745 211.043 29.995 313.136 78.068 C314.899 78.949 316.664 79.826 318.429 80.703 C334.416 88.668 349.682 97.6 364.834 107.03 C367.67 108.794 370.513 110.546 373.359 112.293 C383.468 118.539 393.157 125.248 402.71 132.312 C405.061 134.045 407.424 135.762 409.789 137.477 C419.526 144.556 428.992 151.888 438.263 159.567 C440.762 161.629 443.29 163.654 445.812 165.688 C450.509 169.531 454.999 173.572 459.465 177.68 C461.533 179.573 463.624 181.423 465.75 183.25 C476.215 192.388 486.164 202.068 496 211.875 C496.884 212.754 497.768 213.634 498.678 214.54 C503.09 218.961 507.357 223.443 511.427 228.182 C513.833 230.963 516.359 233.63 518.875 236.312 C523.282 241.055 527.491 245.9 531.543 250.953 C533.399 253.255 535.275 255.532 537.176 257.797 C545.901 268.218 554.074 278.961 562 290 C562.534 290.743 563.068 291.486 563.618 292.252 C580.139 315.31 595.247 339.186 609 364 C609.585 365.056 610.171 366.111 610.774 367.199 C652.52 442.889 678.848 525.753 695 644 C695.093 645.1 695.186 646.201 695.281 647.334 C696.286 660.871 696.244 674.433 696.25 688 C696.251 689.958 696.251 689.958 696.252 691.956 C696.234 714.439 695.402 736.647 693 759 C692.917 759.783 692.835 760.566 692.75 761.373 C686.632 819.13 673.695 876.028 655 931 C654.609 932.158 654.218 933.316 653.815 934.509 C644.321 962.381 632.779 989.49 620 1016 C619.501 1017.041 619.003 1018.082 618.489 1019.154 C611.077 1034.566 602.803 1049.344 594 1064 C593.042 1065.613 592.083 1067.226 591.125 1068.84 C581.967 1084.148 571.923 1098.896 561 1113 C560.387 1113.801 560.387 1113.801 559.761 1114.617 C553.024 1123.403 545.925 1131.815 538.627 1140.139 C530.918 1148.956 523.362 1157.89 516 1167 C511.452 1166.633 509.146 1163.325 506.312 1160.125 C505.527 1159.255 505.527 1159.255 504.725 1158.368 C488.356 1140.105 488.356 1140.105 488.566 1132.457 C490.224 1123.066 500.189 1114.966 506.496 1108.402 C527.084 1086.652 543.616 1060.229 558.61 1034.395 C560.021 1031.965 561.446 1029.543 562.871 1027.121 C607.099 951.4 633.993 869.525 650 711 C650.017 710.148 650.033 709.296 650.05 708.418 C650.141 702.943 650.106 697.475 650 692 C649.982 691.023 649.964 690.046 649.946 689.039 C648.035 597.754 627.622 505.82 578.911 404.821 C578.068 403.135 577.229 401.447 576.391 399.758 C568.18 383.273 558.74 367.613 549 352 C548.278 350.841 548.278 350.841 547.542 349.659 C533.834 327.751 518.551 306.838 502 287 C501.509 286.41 501.017 285.819 500.511 285.211 C495.148 278.779 489.679 272.457 484.043 266.262 C482.182 264.201 480.368 262.109 478.562 260 C475.04 255.946 471.228 252.211 467.406 248.441 C465.333 246.337 463.402 244.194 461.5 241.938 C458.153 238.025 454.407 234.691 450.547 231.293 C448.068 229.061 445.715 226.751 443.375 224.375 C439.41 220.369 435.287 216.655 431 213 C429.983 212.119 428.966 211.238 427.949 210.355 C413.137 197.532 397.896 185.456 382 174 C381.266 173.47 380.532 172.94 379.776 172.394 C305.316 118.764 221.02 85.316 94 54 C92.961 53.814 91.922 53.629 90.852 53.438 C82.559 52.054 74.328 51.531 65.938 51.125 C55.141 50.537 44.464 49.623 33.75 48.125 C32.085 47.901 32.085 47.901 30.386 47.672 C20.442 46.197 8.589 44.385 2 36 C-0.077 31.824 -0.233 28.363 -0.195 23.73 C-0.192 23.049 -0.19 22.368 -0.187 21.667 C-0.176 19.507 -0.151 17.347 -0.125 15.188 C-0.115 13.717 -0.106 12.246 -0.098 10.775 C-0.076 7.183 -0.041 3.592 0 0 Z " fill="#137CC0" transform="translate(4625,56)"/>
<path d="M0 0 C1.254 0.957 2.51 1.913 3.766 2.867 C6.859 5.226 9.934 7.606 13 10 C13.755 9.562 14.511 9.123 15.289 8.672 C19.182 6.429 23.088 4.209 27 2 C28.277 1.277 28.277 1.277 29.581 0.54 C69.847 -22.141 113.862 -29.372 159.02 -17.473 C182.194 -10.898 203.853 3.96 216.688 24.562 C250.453 85.762 235 192.071 235 247 C89.47 247 -56.06 247 -206 247 C-206 105.438 -206 105.438 -202.188 80.375 C-202.017 79.229 -201.847 78.083 -201.671 76.902 C-197.566 50.536 -189.256 26.039 -170 7 C-169.209 6.198 -168.417 5.396 -167.602 4.57 C-126.744 -34.658 -43.239 -33.601 0 0 Z M-112 32 C-113.17 32.463 -114.341 32.926 -115.547 33.402 C-127.733 38.844 -139.866 48.324 -145 61 C-150.735 78.743 -150.14 96.669 -150.098 115.113 C-150.096 117.264 -150.095 119.416 -150.095 121.567 C-150.089 129.482 -150.075 137.397 -150.062 145.312 C-150.042 163.029 -150.021 180.746 -150 199 C-103.8 199 -57.6 199 -10 199 C-9.959 185.573 -9.917 172.146 -9.875 158.312 C-9.857 154.118 -9.839 149.924 -9.82 145.603 C-9.813 141.747 -9.813 141.747 -9.809 137.892 C-9.806 136.212 -9.799 134.533 -9.789 132.854 C-9.616 103.27 -10.936 68.635 -31 45 C-46.027 30.022 -66.058 27.697 -86.254 27.685 C-95.492 27.786 -103.361 28.505 -112 32 Z M54 48 C47.514 56.321 46.959 69.776 46.424 79.939 C46.383 80.701 46.343 81.464 46.301 82.249 C45.771 93.359 45.877 104.482 45.902 115.602 C45.904 117.748 45.905 119.894 45.905 122.04 C45.911 129.902 45.925 137.763 45.938 145.625 C45.958 163.239 45.979 180.852 46 199 C89.89 199 133.78 199 179 199 C179.021 183.655 179.041 168.31 179.062 152.5 C179.072 147.707 179.081 142.913 179.09 137.975 C179.093 133.568 179.093 133.568 179.095 129.162 C179.097 127.243 179.1 125.324 179.106 123.405 C179.134 112.292 179.007 101.201 178.568 90.096 C178.531 89.115 178.494 88.135 178.455 87.125 C177.793 72.005 175.82 59.259 164.438 48.375 C135.25 23.682 81.759 16.915 54 48 Z " fill="#000000" transform="translate(4336,1312)"/>
<path d="M0 0 C23.76 0 47.52 0 72 0 C72 54.12 72 108.24 72 164 C84.15 155.065 84.15 155.065 96.25 146.062 C105.571 139.699 115.791 135.826 126.562 132.688 C127.801 132.324 127.801 132.324 129.064 131.953 C141.343 128.562 153.615 127.633 166.312 127.688 C167.327 127.69 167.327 127.69 168.363 127.693 C197.824 127.826 223.03 136.784 244.625 157.188 C263.573 176.97 274.261 202.536 280 229 C280.248 230.115 280.248 230.115 280.5 231.253 C290.022 276.48 281.756 327.939 257 367 C237.764 395.546 209.19 416.106 175.301 423.094 C146.545 428.369 117.588 422.871 93.41 406.327 C86.859 401.686 80.788 396.571 75 391 C74.25 390.296 73.5 389.592 72.727 388.867 C71 387 71 387 71 385 C69.35 384.67 67.7 384.34 66 384 C62.95 389.599 61.609 395.173 60.16 401.344 C58.27 407.299 55.242 411.586 50 415 C33.962 419.582 16.68 417 0 417 C0 279.39 0 141.78 0 0 Z M92 200 C74.86 223.041 71.623 249.955 71.684 277.961 C71.687 280.995 71.664 284.028 71.639 287.062 C71.568 308.237 74.302 325.768 89.57 341.598 C90.372 342.39 91.174 343.183 92 344 C92.831 344.837 93.663 345.673 94.52 346.535 C106.669 358.608 119.06 368.121 136.75 368.438 C153.071 368.283 170.788 360.927 183 350 C183.712 349.392 184.423 348.783 185.156 348.156 C202.914 331.858 210.938 304.992 212.126 281.5 C212.978 251.734 207.065 222.324 186 200 C185.118 199.039 185.118 199.039 184.219 198.059 C171.094 185.193 152.531 181.48 134.832 181.578 C118.571 182.028 103.033 187.671 92 200 Z " fill="#000000" transform="translate(3541,616)"/>
<path d="M0 0 C30.374 25.145 41.906 56.046 45.875 94.527 C47.6 113.897 47.681 133.984 44.562 153.215 C44.444 153.946 44.326 154.678 44.204 155.432 C37.966 191.781 15.733 226.305 -14.226 247.756 C-16.927 249.634 -19.674 251.429 -22.438 253.215 C-23.381 253.832 -24.325 254.45 -25.297 255.086 C-47.364 268.771 -75.441 275.585 -101.062 269.652 C-103.881 268.918 -106.659 268.087 -109.438 267.215 C-110.498 266.893 -110.498 266.893 -111.58 266.564 C-130.281 260.736 -147.396 250.682 -164.438 241.215 C-164.438 287.415 -164.438 333.615 -164.438 381.215 C-188.197 381.215 -211.957 381.215 -236.438 381.215 C-236.438 248.885 -236.438 116.555 -236.438 -19.785 C-184.438 -19.785 -184.438 -19.785 -176.438 -16.785 C-172.273 -12.62 -172.301 -7.927 -172.121 -2.27 C-172.079 -1.019 -172.037 0.231 -171.994 1.52 C-171.955 2.821 -171.916 4.123 -171.875 5.465 C-171.832 6.782 -171.789 8.1 -171.744 9.457 C-171.638 12.71 -171.536 15.962 -171.438 19.215 C-170.45 18.32 -170.45 18.32 -169.443 17.406 C-164.118 12.592 -158.736 7.91 -153.148 3.402 C-151.412 2.001 -149.687 0.586 -147.977 -0.848 C-103.635 -37.583 -44.039 -35.861 0 0 Z M-141.844 48.673 C-161.775 70.266 -164.817 93.184 -164.698 121.306 C-164.687 124.342 -164.698 127.378 -164.711 130.414 C-164.729 154.726 -161.457 173.409 -143.875 191.34 C-129.208 205.857 -111.721 215.608 -90.737 215.588 C-74.466 215.148 -60.708 208.753 -49.438 197.215 C-35.557 182.463 -28.936 161.692 -25.438 142.215 C-25.252 141.191 -25.066 140.168 -24.875 139.113 C-21.49 108.953 -26.67 76.682 -45.812 52.34 C-57.935 38.373 -72.511 28.28 -91.25 26.277 C-111.52 25.408 -128.155 34.48 -141.844 48.673 Z " fill="#000000" transform="translate(1421.4375,769.78515625)"/>
<path d="M0 0 C2.326 -0.008 4.653 -0.021 6.979 -0.036 C44.539 -0.26 71.437 6.197 99.347 33.305 C114.624 48.776 123.536 67.885 123.784 89.617 C123.646 110.707 115.678 128.232 102.347 144.305 C101.665 145.127 100.983 145.949 100.28 146.797 C96.616 151.056 92.755 154.873 88.468 158.5 C86.107 160.509 83.823 162.59 81.534 164.68 C76.291 169.417 70.852 173.877 65.347 178.305 C67.791 181.05 70.422 182.583 73.651 184.309 C74.704 184.879 75.756 185.45 76.84 186.038 C77.956 186.641 79.072 187.245 80.222 187.867 C89.603 193.043 98.325 198.174 106.347 205.305 C107.292 206.14 108.236 206.975 109.21 207.836 C126.205 223.82 136.691 245.655 137.729 269.016 C138.453 298.064 130.652 324.147 111.347 346.305 C110.625 347.148 109.903 347.991 109.159 348.859 C88.433 372.536 61.626 383.503 31.097 388.555 C30.196 388.706 29.295 388.857 28.367 389.012 C8.42 392.044 -11.707 392.599 -31.845 392.5 C-34.141 392.496 -36.437 392.493 -38.733 392.491 C-44.682 392.484 -50.631 392.464 -56.58 392.442 C-62.689 392.421 -68.797 392.412 -74.905 392.402 C-86.821 392.381 -98.737 392.347 -110.653 392.305 C-110.933 319.1 -110.565 245.912 -109.75 172.711 C-109.716 169.707 -109.683 166.703 -109.65 163.699 C-109.056 110.233 -108.377 56.769 -107.653 3.305 C-104.114 2.566 -100.787 2.135 -97.17 2.007 C-95.533 1.948 -95.533 1.948 -93.863 1.886 C-92.674 1.848 -91.484 1.809 -90.259 1.769 C-88.996 1.726 -87.732 1.683 -86.431 1.639 C-82.235 1.497 -78.038 1.369 -73.841 1.242 C-72.764 1.209 -72.764 1.209 -71.665 1.176 C-47.779 0.45 -23.897 0.061 0 0 Z M-59.653 36.305 C-59.797 37.692 -59.875 39.086 -59.925 40.48 C-59.961 41.381 -59.996 42.282 -60.032 43.21 C-60.065 44.207 -60.099 45.203 -60.134 46.23 C-60.173 47.274 -60.212 48.318 -60.253 49.394 C-60.382 52.873 -60.504 56.353 -60.626 59.832 C-60.714 62.254 -60.802 64.675 -60.891 67.097 C-61.076 72.194 -61.258 77.291 -61.438 82.388 C-61.667 88.876 -61.902 95.364 -62.141 101.851 C-62.324 106.866 -62.504 111.881 -62.684 116.896 C-62.769 119.284 -62.856 121.672 -62.943 124.06 C-63.432 137.481 -63.784 150.874 -63.653 164.305 C-57.344 164.355 -51.036 164.391 -44.726 164.414 C-42.59 164.424 -40.454 164.438 -38.318 164.455 C-20.479 164.598 -2.242 164.561 15.159 160.117 C16.446 159.798 16.446 159.798 17.758 159.472 C30.083 156.25 41.342 151.301 51.347 143.305 C52.029 142.797 52.71 142.289 53.413 141.766 C64.395 133.04 72.245 119.134 74.347 105.305 C75.394 87.863 70.977 73.093 59.518 59.609 C40.81 39.757 11.041 33.456 -15.253 32.32 C-38.677 30.724 -38.677 30.724 -59.653 36.305 Z M-62.653 204.305 C-62.7 219.805 -62.735 235.305 -62.757 250.805 C-62.767 258.004 -62.781 265.202 -62.804 272.401 C-62.824 278.683 -62.837 284.964 -62.842 291.246 C-62.844 294.566 -62.851 297.885 -62.865 301.204 C-63.952 325.892 -63.952 325.892 -57.653 349.305 C-48.427 358.232 -33.433 359.452 -21.001 359.387 C-1.021 358.688 21.417 354.339 39.347 345.305 C40.733 344.63 40.733 344.63 42.147 343.941 C61.783 333.866 76.4 317.355 83.472 296.559 C88.075 279.441 85.071 260.106 77.347 244.305 C75.22 240.788 72.876 237.539 70.347 234.305 C69.625 233.294 68.903 232.283 68.159 231.242 C51.047 211.638 21.929 206.204 -2.653 204.305 C-12.446 203.895 -22.248 204 -32.046 204.099 C-35.514 204.13 -38.981 204.143 -42.448 204.158 C-49.183 204.19 -55.918 204.241 -62.653 204.305 Z " fill="#000000" transform="translate(110.65337753295898,4.695392608642578)"/>
<path d="M0 0 C2.415 0.004 4.829 0.006 7.244 0.008 C45.743 0.04 84.238 0.476 122.733 0.959 C129.225 1.041 135.718 1.119 142.21 1.195 C143.131 1.206 144.052 1.217 145.001 1.228 C149.628 1.283 154.255 1.337 158.882 1.39 C167.876 1.495 176.869 1.611 185.863 1.753 C189.314 1.806 192.764 1.858 196.215 1.91 C197.473 1.929 197.473 1.929 198.757 1.948 C209.759 2.109 220.746 2.109 231.748 1.95 C236.532 1.889 241.317 1.875 246.102 1.855 C248.597 1.83 251.092 1.78 253.586 1.702 C273.064 1.1 273.064 1.1 279.208 6.181 C282.103 9.04 284.526 12.121 286.798 15.49 C288.251 17.613 289.926 19.486 291.667 21.375 C292.191 21.981 292.714 22.587 293.253 23.211 C296.75 27.233 300.346 31.169 303.917 35.125 C306.17 37.627 308.419 40.127 310.632 42.664 C312.868 45.175 312.868 45.175 315.484 47.273 C318.614 50.066 321.506 52.729 322.246 57.036 C322.338 59.319 322.299 61.565 322.214 63.849 C322.197 64.718 322.181 65.587 322.164 66.482 C322.103 69.364 322.011 72.244 321.917 75.125 C321.864 77.134 321.812 79.143 321.76 81.151 C321.579 87.826 321.347 94.499 321.113 101.172 C321.028 103.642 320.943 106.112 320.858 108.581 C320.68 113.728 320.5 118.875 320.318 124.022 C320.088 130.547 319.866 137.073 319.646 143.599 C319.474 148.692 319.295 153.785 319.116 158.878 C319.032 161.281 318.95 163.684 318.87 166.086 C318.464 178.164 317.931 190.212 316.964 202.259 C316.85 203.716 316.85 203.716 316.733 205.204 C315.162 223.478 309.233 237.212 295.246 249.117 C292.458 251.521 289.749 254.006 287.042 256.5 C283.199 260.033 279.351 263.56 275.48 267.063 C274.718 267.752 273.956 268.442 273.171 269.152 C272.427 269.803 271.684 270.454 270.917 271.125 C270.292 271.816 269.666 272.506 269.022 273.218 C264.202 276.179 259.546 275.666 253.997 275.613 C252.775 275.617 251.552 275.621 250.293 275.625 C246.902 275.633 243.511 275.622 240.12 275.604 C236.46 275.589 232.8 275.597 229.14 275.602 C221.964 275.608 214.787 275.593 207.611 275.571 C199.226 275.546 190.842 275.543 182.458 275.542 C167.462 275.538 152.466 275.515 137.47 275.482 C122.985 275.449 108.5 275.428 94.015 275.42 C93.127 275.42 92.239 275.419 91.324 275.419 C87.752 275.417 84.18 275.415 80.608 275.413 C65.896 275.405 51.184 275.388 36.471 275.369 C33.143 275.365 29.814 275.362 26.485 275.358 C17.713 275.349 8.942 275.337 0.17 275.317 C-3.452 275.308 -7.073 275.301 -10.694 275.298 C-25.702 275.285 -40.696 275.118 -55.697 274.669 C-56.375 274.649 -57.053 274.629 -57.751 274.608 C-104.306 273.215 -104.306 273.215 -114.083 266.125 C-118.406 259.597 -119.165 251.733 -118.083 244.125 C-115.554 239.068 -111.141 237.153 -106.083 235.125 C-98.169 232.525 -90.284 231.341 -82.02 230.5 C-80.933 230.379 -79.845 230.258 -78.725 230.133 C-63.331 228.489 -47.854 227.967 -32.385 227.58 C-31.578 227.559 -30.771 227.539 -29.939 227.517 C-11.902 227.058 6.133 226.926 24.175 226.855 C28.629 226.836 33.082 226.812 37.535 226.788 C48.788 226.729 60.04 226.677 71.292 226.625 C83.452 226.569 95.611 226.512 107.771 226.447 C112.155 226.424 116.538 226.403 120.922 226.385 C139.36 226.312 157.788 226.118 176.221 225.662 C177.034 225.642 177.848 225.623 178.686 225.602 C209.768 224.864 209.768 224.864 240.667 221.688 C241.828 221.522 241.828 221.522 243.012 221.354 C247.955 220.545 252.906 219.49 256.273 215.531 C271.384 180.91 272.385 102.233 259.667 66.625 C254.731 59.574 247.537 56.332 239.264 54.555 C236.381 54.123 233.505 53.791 230.605 53.5 C229.501 53.382 228.397 53.263 227.26 53.141 C217.455 52.154 207.631 51.537 197.792 51 C197.089 50.961 196.386 50.923 195.662 50.883 C169.765 49.497 143.813 48.982 117.885 48.619 C115.768 48.589 113.652 48.558 111.536 48.527 C89.237 48.202 66.937 48.005 44.636 47.879 C43.17 47.87 41.704 47.862 40.238 47.854 C26.962 47.777 13.686 47.705 0.41 47.648 C-57.577 47.395 -57.577 47.395 -77.801 46.277 C-79.735 46.175 -79.735 46.175 -81.708 46.071 C-108.212 44.332 -108.212 44.332 -114.895 37.188 C-118.048 31.711 -117.834 25.263 -116.399 19.27 C-114.866 14.556 -113.333 9.95 -109.051 7.043 C-92.719 -0.572 -71.129 1.021 -53.481 0.578 C-52.245 0.546 -52.245 0.546 -50.984 0.514 C-33.989 0.082 -17 -0.031 0 0 Z " fill="#000000" transform="translate(4250.082624912262,875.8749587535858)"/>
<path d="M0 0 C1.476 -0.003 2.952 -0.007 4.428 -0.01 C7.508 -0.016 10.588 -0.018 13.668 -0.017 C16.756 -0.017 19.843 -0.024 22.931 -0.038 C38.928 -0.108 54.868 0.012 70.836 1.055 C72.036 1.132 73.236 1.21 74.472 1.29 C92.997 2.648 92.997 2.648 97.902 5.918 C104.469 16.664 99.399 34.137 97.34 45.793 C97.058 47.443 96.778 49.092 96.498 50.742 C96.229 52.314 95.959 53.886 95.688 55.457 C95.561 56.188 95.435 56.919 95.305 57.673 C94.788 60.596 94.218 63.346 93.277 66.168 C84.907 64.91 76.726 63.158 68.496 61.196 C24.37 50.765 -22.428 50.057 -62.391 74.479 C-94.607 95.004 -113.921 125.424 -122.535 162.355 C-131.252 207.986 -121.073 255.452 -94.949 293.998 C-75.183 321.931 -47.762 335.671 -14.723 342.168 C-13.523 342.414 -12.322 342.66 -11.086 342.914 C8.693 346.245 29.68 345.041 49.277 341.168 C50.316 340.964 51.354 340.761 52.423 340.551 C54.687 340.107 56.95 339.662 59.214 339.217 C83.823 334.391 83.823 334.391 89.277 335.168 C92.654 338.21 93.574 342.606 94.777 346.855 C94.991 347.597 95.205 348.339 95.425 349.103 C96.915 354.454 98.11 359.827 99.09 365.293 C99.214 365.978 99.337 366.664 99.465 367.37 C100.37 372.806 100.9 377.945 99.402 383.293 C94.284 390.218 84.497 392.266 76.465 394.168 C75.444 394.416 74.422 394.664 73.37 394.919 C60.453 397.959 47.391 400.166 34.277 402.168 C33.435 402.302 32.593 402.436 31.725 402.575 C8.274 406.202 -18.517 406.295 -41.723 401.168 C-42.746 400.942 -43.768 400.716 -44.822 400.484 C-67.114 395.402 -88.625 388.141 -108.723 377.168 C-109.328 376.845 -109.932 376.522 -110.556 376.188 C-149.787 355.161 -176.683 320.418 -189.723 278.168 C-196.246 255.939 -198.239 233.45 -198.114 210.363 C-198.098 206.868 -198.114 203.375 -198.133 199.881 C-198.153 179.837 -196.993 159.518 -191.91 140.043 C-191.652 139.016 -191.393 137.988 -191.126 136.93 C-184.75 112.332 -173.115 90.567 -156.723 71.168 C-156.086 70.406 -156.086 70.406 -155.436 69.628 C-144.468 56.518 -133.385 43.544 -119.723 33.168 C-118.838 32.445 -117.954 31.722 -117.043 30.977 C-84.201 4.821 -40.6 0.022 0 0 Z " fill="#000000" transform="translate(197.72265625,635.83203125)"/>
<path d="M0 0 C1.831 -0.003 3.661 -0.007 5.492 -0.01 C9.313 -0.016 13.135 -0.018 16.956 -0.017 C20.826 -0.017 24.696 -0.024 28.566 -0.038 C95.692 -0.272 95.692 -0.272 106.848 9.168 C110.636 13.597 111.087 17.434 110.848 23.168 C109.872 28.613 108.436 33.873 106.848 39.168 C106.643 39.857 106.438 40.547 106.228 41.257 C101.179 57.999 101.179 57.999 96.082 61.317 C86.917 64.807 75.438 61.339 66.285 59.293 C22.576 49.965 -23.305 53.403 -62.031 77.5 C-68.933 82.153 -75.15 87.413 -81.152 93.168 C-82.216 94.154 -82.216 94.154 -83.301 95.16 C-107.273 118.03 -116.509 154.866 -117.355 186.988 C-117.899 230.677 -108.119 275.671 -77.465 308.355 C-53.339 331.473 -16.035 343.146 16.848 344.168 C18.049 344.208 19.25 344.248 20.488 344.289 C33.821 344.511 46.642 343.178 59.651 340.237 C68.458 338.248 76.919 336.675 85.973 336.605 C87.189 336.584 87.189 336.584 88.429 336.562 C93.656 336.652 96.745 337.678 100.848 341.168 C108.368 350.714 108.619 362.528 107.848 374.168 C106.753 381.573 103.852 387.539 97.848 392.168 C72.606 404.925 34.165 402.805 6.848 402.168 C5.482 402.141 5.482 402.141 4.088 402.114 C-52.055 400.913 -102.565 387.794 -142.854 346.494 C-178.186 309.002 -191.364 256.906 -191.402 206.605 C-191.403 205.795 -191.404 204.985 -191.404 204.15 C-191.329 146.372 -173.984 92.013 -132.646 50.661 C-95.196 13.885 -51.494 0.022 0 0 Z " fill="#000000" transform="translate(2884.15234375,635.83203125)"/>
<path d="M0 0 C181.232 0 181.232 0 214.625 31.125 C233.584 50.953 237.169 78.778 237.24 105.03 C237.25 107.167 237.281 109.303 237.312 111.439 C237.45 129.13 234.311 144.584 221.742 157.91 C221.227 158.462 220.712 159.014 220.181 159.583 C212.669 167.564 204.798 175.204 196.963 182.866 C194.917 184.869 192.882 186.881 190.848 188.895 C189.926 189.789 189.926 189.789 188.985 190.701 C181.993 197.649 181.993 197.649 178.75 206.625 C181.076 211.044 185.174 213.703 189.184 216.551 C220.465 239.267 227.234 294.137 236.125 329.438 C237.291 334.062 238.46 338.685 239.638 343.307 C240.127 345.225 240.615 347.144 241.102 349.063 C243.419 358.067 246.017 366.956 249 375.763 C250.705 381.012 251.286 384.598 250 390 C243.638 392.814 238.506 393.409 231.594 393.293 C230.146 393.287 230.146 393.287 228.669 393.28 C225.612 393.263 222.556 393.226 219.5 393.188 C217.417 393.172 215.333 393.159 213.25 393.146 C208.166 393.114 203.083 393.062 198 393 C197.801 392.172 197.601 391.345 197.396 390.492 C195.117 381.045 192.817 371.604 190.507 362.165 C189.449 357.84 188.395 353.514 187.345 349.187 C185.872 343.124 184.385 337.065 182.892 331.008 C182.308 328.628 181.727 326.246 181.15 323.864 C178 310.864 174.538 298.051 170.32 285.352 C169.953 284.245 169.585 283.138 169.207 281.998 C166.217 273.218 162.603 265.045 158 257 C157.438 255.992 156.876 254.984 156.297 253.945 C147.196 238.593 133.838 229.376 116.84 224.789 C93.443 219.981 75.211 221.514 49 221 C49 277.76 49 334.52 49 393 C32.83 393 16.66 393 0 393 C0 263.31 0 133.62 0 0 Z M52 36 C51.602 46.53 51.21 57.06 50.827 67.59 C50.648 72.483 50.467 77.377 50.282 82.27 C43.883 134.912 43.883 134.912 54.188 182.375 C74.309 194 102.201 187.442 123.415 181.979 C145.711 175.836 165.7 164.13 178 144 C182.498 135.982 186.133 128.049 188 119 C188.34 117.36 188.34 117.36 188.688 115.688 C190.268 97.035 187.037 79.971 174.926 65.215 C158.318 46.114 135.022 35.773 110 33 C108.831 32.854 107.662 32.709 106.457 32.559 C88.71 30.775 69.518 33.009 52 36 Z " fill="#000000" transform="translate(321,4)"/>
<path d="M0 0 C1.088 -0.015 1.088 -0.015 2.199 -0.03 C33.159 -0.363 60.712 4.196 88.152 19.238 C89.207 19.791 90.261 20.344 91.348 20.914 C99.503 25.375 106.317 31.006 113.152 37.238 C114.041 38.043 114.929 38.847 115.844 39.676 C138.879 61.594 146.231 88.704 147.268 119.71 C147.424 127.113 147.438 134.514 147.413 141.917 C147.402 145.734 147.413 149.55 147.426 153.367 C147.449 195.649 140.868 223.466 111.152 254.238 C110.354 255.088 109.556 255.937 108.734 256.812 C81.55 285.061 44.87 294.562 6.435 295.386 C2.903 295.447 -0.628 295.471 -4.16 295.488 C-4.834 295.494 -5.509 295.499 -6.203 295.505 C-18.653 295.58 -30.903 294.767 -42.723 290.613 C-43.847 290.227 -43.847 290.227 -44.995 289.834 C-52.324 287.226 -59.227 283.907 -66.061 280.206 C-67.704 279.316 -69.361 278.454 -71.02 277.594 C-98.092 262.876 -116.305 236.234 -125.098 207.238 C-137.881 163.172 -138.42 107.628 -115.836 66.457 C-111.747 59.58 -107.025 53.326 -101.848 47.238 C-101.257 46.502 -100.667 45.766 -100.059 45.008 C-76.901 17.17 -35.651 0.402 0 0 Z M-40.598 73.363 C-60.471 99.382 -63.845 133.899 -60.348 165.617 C-59.756 169.886 -58.902 174.061 -57.848 178.238 C-57.681 178.904 -57.515 179.57 -57.344 180.255 C-51.548 202.52 -39.821 225.188 -19.747 237.646 C-6.451 245.365 7.476 248.756 22.715 245.176 C42.257 238.884 56.933 225.944 66.34 207.676 C70.353 199.486 73.108 191.114 75.152 182.238 C75.316 181.529 75.48 180.82 75.648 180.09 C82.74 147.619 78.86 110.053 61.041 81.455 C50.822 66.228 37.269 55.086 19.152 50.988 C-3.004 47.169 -26.005 56.576 -40.598 73.363 Z " fill="#000000" transform="translate(469.84765625,742.76171875)"/>
<path d="M0 0 C23.43 0 46.86 0 71 0 C71.976 25.533 72.902 51.063 73.636 76.604 C73.731 79.912 73.827 83.221 73.923 86.529 C74.445 104.585 74.445 104.585 74.681 113.202 C72.308 165.559 72.308 165.559 88 213 C88 213.66 88 214.32 88 215 C88.57 215.254 89.14 215.508 89.727 215.77 C92.27 217.146 94.192 218.792 96.375 220.688 C107.359 229.645 118.785 234.131 133 233 C149.568 229.263 166.905 216.097 176.711 202.293 C183.971 189.379 184.289 173.655 185.06 159.212 C185.144 157.716 185.228 156.219 185.312 154.723 C186.114 140.065 186.583 125.399 186.978 110.725 C187.077 107.082 187.183 103.439 187.288 99.796 C187.53 91.411 187.764 83.025 187.998 74.64 C188.298 63.868 188.6 53.097 188.911 42.326 C189.035 38.023 189.155 33.72 189.272 29.416 C189.362 26.129 189.457 22.843 189.551 19.556 C189.582 18.381 189.612 17.207 189.644 15.997 C189.676 14.909 189.708 13.821 189.741 12.7 C189.767 11.763 189.793 10.825 189.82 9.859 C190.028 6.556 190.532 3.277 191 0 C214.1 0 237.2 0 261 0 C261 93.39 261 186.78 261 283 C209 283 209 283 201 280 C197.043 276.043 196.924 271.832 196.709 266.415 C196.43 259.466 195.883 253.432 193 247 C190.332 244.801 190.332 244.801 188.062 245.062 C184.392 246.731 182.65 249.803 180.766 253.273 C170.133 272.686 143.966 281.609 123.748 287.676 C101.327 294.071 75.672 292.453 55 281 C34.099 268.066 14.523 248.587 8.532 224.085 C6.517 214.808 5.696 205.376 4.98 195.926 C4.894 194.788 4.808 193.65 4.719 192.478 C3.866 180.785 3.378 169.092 3 157.375 C2.961 156.212 2.922 155.049 2.881 153.851 C2.03 128.347 1.482 102.835 0.943 77.323 C0.876 74.16 0.808 70.997 0.74 67.834 C0.632 62.75 0.527 57.666 0.425 52.583 C0.388 50.713 0.349 48.843 0.31 46.973 C-0.02 31.31 0 15.674 0 0 Z " fill="#000000" transform="translate(1530,750)"/>
<path d="M0 0 C24.09 0 48.18 0 73 0 C73.049 8.641 73.098 17.281 73.148 26.184 C73.188 32.438 73.23 38.692 73.272 44.946 C73.327 52.999 73.38 61.052 73.422 69.105 C68.539 150.684 68.539 150.684 97.16 222.395 C107.532 231.445 118.834 234.488 132.441 234.332 C149.216 232.767 166.5 213.626 177.098 201.457 C186.857 188.853 187.921 172.906 188.543 157.553 C188.585 156.525 188.626 155.496 188.669 154.437 C189.188 140.46 189.228 126.474 189.303 112.489 C189.326 108.517 189.353 104.545 189.379 100.574 C189.429 93.095 189.474 85.616 189.517 78.136 C189.577 68 189.643 57.864 189.708 47.728 C189.811 31.819 189.905 15.909 190 0 C213.43 0 236.86 0 261 0 C261 93.39 261 186.78 261 283 C205.452 283 205.452 283 200.625 279.062 C197.709 275.361 197.823 271.927 197.684 267.363 C197.642 266.065 197.6 264.766 197.557 263.428 C197.517 262.056 197.477 260.684 197.438 259.312 C197.394 257.929 197.351 256.546 197.307 255.162 C197.2 251.775 197.098 248.388 197 245 C196.221 245.62 195.443 246.24 194.641 246.879 C191.52 249.355 188.382 251.807 185.238 254.254 C183.715 255.442 182.196 256.635 180.68 257.832 C164.783 270.355 148.7 280.675 129 286 C127.93 286.317 126.86 286.634 125.758 286.961 C107.463 291.566 85.884 291.054 68 285 C66.946 284.649 65.891 284.299 64.805 283.938 C52.681 279.379 41.718 271.442 32 263 C31.366 262.45 30.732 261.899 30.078 261.332 C2.39 235.543 4.812 185.787 3.575 151.061 C3.185 139.733 2.856 128.403 2.53 117.073 C2.377 111.775 2.216 106.477 2.057 101.18 C1.78 91.955 1.511 82.731 1.247 73.506 C1.092 68.124 0.932 62.743 0.763 57.361 C0.665 54.218 0.571 51.075 0.476 47.931 C0.415 45.908 0.349 43.884 0.282 41.861 C-0.129 27.895 0 13.995 0 0 Z " fill="#000000" transform="translate(3202,750)"/>
<path d="M0 0 C0.786 0.642 1.573 1.284 2.383 1.945 C17.281 14.602 27.168 31.157 34.25 49.188 C34.555 49.951 34.86 50.714 35.175 51.5 C41.471 68.348 43.982 86.099 45.941 103.879 C46.317 107.29 46.713 110.698 47.111 114.105 C47.363 116.305 47.614 118.504 47.863 120.703 C47.979 121.706 48.094 122.71 48.213 123.743 C48.317 124.696 48.421 125.648 48.529 126.63 C48.666 127.864 48.666 127.864 48.806 129.123 C49.073 133.084 49.037 137.032 49 141 C48.266 141.003 47.532 141.007 46.775 141.01 C28.755 141.092 10.736 141.184 -7.284 141.288 C-15.999 141.337 -24.714 141.384 -33.429 141.422 C-41.041 141.455 -48.654 141.495 -56.266 141.543 C-60.282 141.568 -64.298 141.59 -68.313 141.603 C-84.235 141.66 -100.105 141.899 -115.998 142.924 C-117.244 143.004 -118.491 143.084 -119.775 143.167 C-129.623 143.86 -139.306 145.148 -149 147 C-143.771 168.596 -133.812 190.936 -114.688 203.438 C-95.996 214.087 -75.503 216.208 -54.438 216.188 C-53.273 216.189 -53.273 216.189 -52.085 216.19 C-42.486 216.189 -32.998 215.942 -23.438 215 C-14.948 214.164 -6.532 213.75 2 213.688 C3.081 213.67 4.162 213.653 5.276 213.635 C11.489 213.639 16.532 213.893 22 217 C23.406 220.219 23.406 220.219 24 224 C24.258 225.227 24.516 226.454 24.781 227.719 C25.26 230.24 25.74 232.76 26.219 235.281 C26.958 239.033 26.958 239.033 28.094 242.773 C29.132 246.469 29.262 248.373 28 252 C13.841 268.126 -22.163 269.34 -42 272 C-42.774 272.105 -43.547 272.209 -44.344 272.317 C-86.125 277.233 -131.968 269.821 -166.438 244.5 C-168.308 243.02 -170.163 241.521 -172 240 C-172.848 239.316 -173.696 238.631 -174.57 237.926 C-200.442 215.988 -210.073 182.98 -212.817 150.21 C-213.988 129.676 -214.453 108.15 -210 88 C-209.801 87.078 -209.603 86.155 -209.398 85.205 C-206.413 71.745 -202.261 59.284 -196 47 C-195.651 46.308 -195.301 45.617 -194.941 44.904 C-179.252 14.308 -152.902 -8.644 -120.146 -19.355 C-80.422 -31.295 -32.442 -27.689 0 0 Z M-134.059 52.219 C-145.051 65.321 -145.051 65.321 -149.426 81.039 C-148.82 83.828 -147.333 85.36 -145.031 86.973 C-118.312 100.486 -74.161 93.713 -45 92.625 C-44.089 92.594 -43.179 92.563 -42.24 92.532 C-35.509 92.221 -28.997 91.438 -22.875 88.5 C-20.77 85.694 -20.696 85.062 -20.875 81.688 C-23.978 62.179 -34.048 44.865 -49.938 33.062 C-80.423 13.286 -112.544 25.992 -134.059 52.219 Z " fill="#000000" transform="translate(2270,767)"/>
<path d="M0 0 C13.498 0.449 26.976 1.251 40.448 2.187 C42.275 2.312 44.102 2.433 45.93 2.548 C48.531 2.714 51.131 2.898 53.73 3.086 C54.52 3.133 55.31 3.18 56.124 3.228 C61.55 3.649 61.55 3.649 63.619 5.262 C65.207 7.26 65.927 8.992 66.751 11.406 C67.065 12.309 67.378 13.212 67.701 14.143 C68.034 15.133 68.367 16.124 68.711 17.145 C69.071 18.192 69.431 19.24 69.803 20.319 C71.002 23.814 72.188 27.313 73.375 30.812 C74.218 33.279 75.062 35.744 75.907 38.21 C78.62 46.135 81.311 54.067 84 62 C84.224 62.662 84.449 63.323 84.68 64.005 C88.713 75.902 92.742 87.802 96.761 99.704 C102.046 115.354 107.399 130.978 112.875 146.562 C118.569 162.77 124.052 179.041 129.46 195.346 C133.458 207.397 137.509 219.427 141.625 231.438 C148.086 250.293 154.483 269.17 160.871 288.051 C165.888 302.883 170.918 317.71 176 332.52 C178.437 339.625 180.857 346.736 183.27 353.85 C184.001 356.002 184.735 358.153 185.47 360.305 C186.812 364.238 188.127 368.181 189.438 372.125 C189.822 373.246 190.206 374.367 190.603 375.522 C193.954 385.757 193.954 385.757 192 391 C185.766 394.955 179.42 394.488 172.315 394.446 C170.137 394.438 167.962 394.466 165.785 394.498 C157.673 394.54 150.705 394.454 144.453 388.536 C135.156 377.582 131.064 361.032 126.562 347.625 C125.972 345.881 125.381 344.138 124.791 342.394 C119.763 327.496 114.927 312.535 110.125 297.562 C109.587 295.888 109.587 295.888 109.039 294.18 C108.025 291.018 107.015 287.855 106.008 284.691 C105.702 283.738 105.397 282.785 105.082 281.803 C104.668 280.498 104.668 280.498 104.247 279.166 C104.005 278.406 103.763 277.646 103.513 276.863 C103 275 103 275 103 273 C54.49 273 5.98 273 -44 273 C-44.99 276.63 -45.98 280.26 -47 284 C-47.6 285.992 -48.213 287.98 -48.85 289.961 C-49.181 290.994 -49.512 292.027 -49.853 293.092 C-50.203 294.175 -50.553 295.259 -50.914 296.375 C-51.475 298.12 -51.475 298.12 -52.047 299.9 C-52.838 302.358 -53.63 304.815 -54.422 307.272 C-55.603 310.933 -56.781 314.595 -57.957 318.258 C-61.881 330.456 -65.849 342.639 -69.887 354.801 C-70.436 356.461 -70.436 356.461 -70.997 358.155 C-80.48 386.6 -80.48 386.6 -92 393 C-96.634 394.545 -101.271 394.226 -106.125 394.25 C-107.637 394.281 -107.637 394.281 -109.18 394.312 C-115.61 394.346 -121.099 393.667 -127 391 C-127.33 390.67 -127.66 390.34 -128 390 C-127.602 381.906 -124.843 374.302 -122.438 366.625 C-122.181 365.801 -121.925 364.977 -121.661 364.128 C-105.495 312.165 -88.242 260.543 -71.035 208.918 C-70.38 206.954 -69.726 204.99 -69.072 203.026 C-60.196 176.387 -51.296 149.757 -42.191 123.195 C-37.596 109.783 -33.068 96.35 -28.555 82.91 C-27.835 80.768 -27.116 78.626 -26.396 76.484 C-23.472 67.781 -20.55 59.077 -17.632 50.372 C-15.809 44.936 -13.984 39.501 -12.156 34.066 C-11.472 32.029 -10.789 29.991 -10.106 27.953 C-9.161 25.128 -8.211 22.304 -7.261 19.481 C-6.989 18.665 -6.717 17.849 -6.436 17.008 C-4.494 11.253 -2.304 5.62 0 0 Z M33 49 C21.291 61.754 16.361 82.832 11 98.812 C10.64 99.878 10.28 100.943 9.909 102.041 C-0.984 134.314 -10.713 166.965 -19.938 199.75 C-20.146 200.483 -20.354 201.216 -20.568 201.972 C-22.636 209.289 -24.472 216.388 -25 224 C-19.794 225.636 -14.805 226.563 -9.382 227.113 C-8.558 227.197 -7.734 227.282 -6.885 227.368 C2.775 228.275 12.412 228.251 22.105 228.195 C24.051 228.192 25.997 228.189 27.943 228.187 C32.995 228.179 38.046 228.16 43.098 228.137 C48.281 228.117 53.464 228.108 58.646 228.098 C68.764 228.076 78.882 228.042 89 228 C82.617 208.197 76.208 188.409 69.458 168.728 C68.384 165.592 67.314 162.455 66.246 159.318 C62.299 147.723 62.299 147.723 58.329 136.136 C51.055 114.971 44.731 93.635 39 72 C38.801 71.256 38.602 70.512 38.397 69.745 C37.548 66.011 37.589 62.102 37.379 58.289 C36.995 54.955 36.17 52.137 35 49 C34.34 49 33.68 49 33 49 Z " fill="#000000" transform="translate(740,3)"/>
<path d="M0 0 C15.84 0 31.68 0 48 0 C48.025 5.258 48.05 10.516 48.076 15.933 C48.16 33.479 48.249 51.025 48.339 68.57 C48.394 79.189 48.447 89.807 48.497 100.425 C48.541 109.703 48.587 118.981 48.637 128.259 C48.663 133.151 48.688 138.042 48.709 142.933 C48.799 163.354 48.999 183.766 49.469 204.182 C49.489 205.066 49.509 205.949 49.529 206.859 C48.875 272.174 48.875 272.174 76.434 328.68 C93.403 344.022 119.464 358.62 142.773 358.402 C165.323 356.899 195.881 343.564 211 327 C213.397 323.82 215.264 320.58 217 317 C217.438 316.098 217.877 315.195 218.328 314.266 C231.14 285.709 230.925 251.202 232.027 220.484 C232.068 219.394 232.108 218.304 232.15 217.181 C233.617 176.64 233.935 136.057 234.516 95.496 C234.732 80.431 234.951 65.366 235.18 50.301 C235.271 44.282 235.358 38.263 235.44 32.244 C235.492 28.541 235.548 24.838 235.604 21.135 C235.63 19.417 235.654 17.699 235.676 15.981 C235.706 13.646 235.742 11.311 235.779 8.976 C235.798 7.669 235.817 6.362 235.836 5.016 C236 2 236 2 237 0 C252.84 0 268.68 0 285 0 C285.193 38.843 284.507 77.642 283.72 116.475 C283.544 125.183 283.375 133.891 283.205 142.599 C282.662 170.441 282.116 198.282 281.457 226.121 C281.431 227.27 281.431 227.27 281.404 228.441 C280.316 275.455 279.342 317.128 245 353 C244.328 353.735 243.657 354.47 242.965 355.227 C217.077 382.614 175.754 397.126 138.672 398.219 C107.244 398.809 73.805 392.785 49 372 C47.73 370.954 47.73 370.954 46.434 369.887 C17.515 345.03 4.84 307.693 1.875 270.812 C1.141 260.14 0.724 249.472 0.451 238.779 C0.43 237.955 0.409 237.132 0.387 236.283 C-0.175 213.934 -0.129 191.582 -0.101 169.227 C-0.095 163.249 -0.095 157.272 -0.093 151.294 C-0.09 140.044 -0.082 128.794 -0.072 117.543 C-0.061 104.706 -0.055 91.868 -0.05 79.031 C-0.04 52.687 -0.022 26.344 0 0 Z " fill="#000000" transform="translate(1452,4)"/>
<path d="M0 0 C15.302 14.938 13.887 44.753 14.136 64.57 C14.237 76.085 14.19 87.6 14.137 99.115 C14.117 104.191 14.108 109.268 14.098 114.344 C14.076 124.229 14.043 134.115 14 144 C15.384 144.446 15.384 144.446 16.796 144.9 C20.332 146.114 23.534 147.722 26.812 149.492 C27.454 149.834 28.096 150.176 28.758 150.528 C30.841 151.639 32.921 152.757 35 153.875 C36.452 154.652 37.905 155.428 39.358 156.204 C49.133 161.433 58.874 166.722 68.598 172.047 C79.033 177.758 89.508 183.394 100 189 C101.051 189.564 102.102 190.128 103.186 190.709 C144.705 215.257 144.705 215.257 190.312 218.625 C223.254 208.276 254.486 191.823 284.895 175.695 C291.075 172.422 297.289 169.214 303.5 166 C313.219 160.969 322.92 155.904 332.598 150.793 C334.391 149.848 336.187 148.907 338 148 C338.046 146.911 338.091 145.822 338.138 144.7 C338.574 134.332 339.015 123.964 339.461 113.597 C339.69 108.27 339.917 102.942 340.14 97.615 C340.356 92.453 340.577 87.292 340.802 82.131 C340.885 80.182 340.968 78.233 341.048 76.285 C341.484 65.716 342.08 55.179 342.981 44.639 C343.061 43.698 343.14 42.756 343.222 41.787 C345.69 14.265 345.69 14.265 354.125 7 C361.047 2.185 370.723 3.505 378.914 4.273 C384.071 5.213 387.394 7.051 391 11 C400.563 33.008 397.209 62.401 397.24 85.884 C397.245 88.715 397.259 91.546 397.281 94.376 C397.546 128.237 394.373 156.653 370.125 182.312 C326.144 225.208 233.631 271.571 172.022 271.301 C148.286 270.826 126.345 262.828 105 253 C104.04 252.559 103.08 252.118 102.091 251.664 C77.061 240.085 52.862 226.806 29 213 C28.124 212.494 27.248 211.987 26.345 211.466 C0.143 196.249 -27.305 179.79 -35.895 148.77 C-39.518 133.257 -40.352 117.176 -41.125 101.312 C-41.167 100.477 -41.208 99.642 -41.251 98.781 C-45.018 22.097 -45.018 22.097 -30.215 4.93 C-22.199 -2.688 -9.803 -6.684 0 0 Z " fill="#000000" transform="translate(4172,56)"/>
<path d="M0 0 C5.132 3.871 6.894 9.562 7.904 15.635 C8.149 17.39 8.38 19.147 8.599 20.906 C8.723 21.865 8.848 22.824 8.976 23.812 C10.36 35.01 11.005 46.243 11.617 57.504 C11.747 59.77 11.877 62.036 12.008 64.301 C12.346 70.189 12.674 76.078 12.999 81.966 C13.268 86.791 13.544 91.616 13.82 96.441 C14.151 102.212 14.478 107.983 14.805 113.754 C14.898 115.395 14.898 115.395 14.992 117.069 C15.166 120.154 15.338 123.24 15.509 126.326 C15.56 127.237 15.611 128.148 15.664 129.086 C15.882 133.062 16.078 137.016 16.012 141 C16.722 141.268 17.433 141.537 18.165 141.813 C21.092 143.034 23.79 144.445 26.562 145.984 C28.179 146.881 28.179 146.881 29.829 147.796 C30.994 148.447 32.159 149.099 33.324 149.75 C34.543 150.429 35.763 151.107 36.982 151.786 C44.617 156.046 52.173 160.425 59.699 164.875 C123.603 205.189 123.603 205.189 194.871 211.789 C216.917 205.644 237.656 195.286 258.012 185 C258.686 184.66 259.36 184.319 260.054 183.968 C275.017 176.4 289.915 168.716 304.586 160.595 C312.051 156.481 319.603 152.547 327.176 148.637 C328.428 147.989 329.681 147.341 330.933 146.693 C333.959 145.127 336.985 143.563 340.012 142 C340.024 140.256 340.024 140.256 340.036 138.477 C340.114 127.445 340.202 116.414 340.299 105.382 C340.349 99.713 340.395 94.043 340.434 88.374 C340.471 82.888 340.517 77.403 340.57 71.917 C340.588 69.839 340.603 67.76 340.615 65.682 C340.909 15.472 340.909 15.472 352.938 3.004 C358.475 -2.027 362.29 -3.195 369.762 -3.25 C370.798 -3.281 370.798 -3.281 371.855 -3.312 C376.97 -3.351 380.469 -2.379 385.012 0 C393.452 9.143 393.029 25.195 394.012 37 C394.114 38.217 394.215 39.434 394.32 40.688 C395.72 60.322 396.486 80.322 396.012 100 C395.985 101.128 395.985 101.128 395.958 102.278 C395.197 130.118 391.179 155.267 371.012 176 C370.41 176.664 369.808 177.328 369.188 178.012 C357.188 190.845 341.147 199.462 326.012 208 C325.124 208.502 324.236 209.005 323.322 209.522 C199.49 279.049 199.49 279.049 141.703 262.82 C88.976 246.995 -3.287 209.299 -31.011 158.927 C-40.919 139.384 -41.723 117.442 -42.988 96 C-43.053 94.962 -43.053 94.962 -43.119 93.903 C-43.864 81.872 -44.203 69.866 -44.229 57.812 C-44.238 55.002 -44.269 52.193 -44.301 49.383 C-44.509 13.627 -44.509 13.627 -34.543 2.367 C-26.109 -5.36 -9.895 -4.977 0 0 Z " fill="#000000" transform="translate(4173.98828125,471)"/>
<path d="M0 0 C1.216 -0.003 2.432 -0.007 3.684 -0.011 C62.228 -0.104 62.228 -0.104 76.438 13.75 C79.909 21.994 78.647 31.091 75.398 39.227 C73.002 42.648 70.168 44.859 66.001 45.706 C63.632 45.899 61.315 45.915 58.938 45.875 C58.008 45.87 57.079 45.865 56.121 45.859 C46.44 45.627 36.945 44.181 27.375 42.812 C-18.388 36.292 -65.543 41.789 -103.5 70.25 C-106.058 72.227 -108.571 74.252 -111.062 76.312 C-111.615 76.767 -112.168 77.222 -112.737 77.691 C-121.052 84.642 -127.768 92.529 -134.062 101.312 C-134.461 101.868 -134.859 102.423 -135.269 102.995 C-161.267 139.905 -167.551 186.639 -160.004 230.469 C-153.695 264.226 -138.892 293.629 -115.062 318.312 C-114.472 318.966 -113.882 319.62 -113.273 320.293 C-91.777 343.498 -55.524 358.005 -24.344 359.49 C-19.937 359.557 -15.532 359.611 -11.125 359.625 C-10.321 359.628 -9.517 359.63 -8.689 359.633 C5.227 359.638 18.307 358.161 31.938 355.312 C53.956 350.962 53.956 350.962 65.062 350.875 C65.791 350.865 66.519 350.855 67.269 350.845 C71.621 350.917 74.613 351.433 77.938 354.312 C81.43 361.677 81.3 372.223 78.812 379.938 C75.107 386.607 70.29 389.086 63.246 391.406 C10.966 405.726 -76.297 405.643 -123.625 378.749 C-129.42 375.334 -134.812 371.508 -140.062 367.312 C-140.64 366.853 -141.218 366.393 -141.814 365.919 C-183.411 332.428 -206.208 280.661 -212.062 228.312 C-214.991 197.057 -212.514 166.542 -204.062 136.312 C-203.733 135.11 -203.733 135.11 -203.396 133.883 C-193.418 98.418 -170.935 63.452 -142.062 40.312 C-141.572 39.91 -141.082 39.507 -140.576 39.092 C-99.58 5.452 -51.421 0.048 0 0 Z " fill="#000000" transform="translate(1177.0625,-0.3125)"/>
<path d="M0 0 C1.383 0.004 1.383 0.004 2.795 0.009 C5.719 0.02 8.643 0.045 11.566 0.07 C13.558 0.08 15.549 0.089 17.541 0.098 C22.404 0.12 27.266 0.154 32.129 0.195 C37.465 13.631 42.426 27.188 47.315 40.792 C49.621 47.205 51.935 53.615 54.254 60.023 C54.614 61.02 54.614 61.02 54.982 62.036 C60.676 77.767 66.507 93.446 72.347 109.122 C77.983 124.253 83.587 139.393 89.074 154.578 C89.316 155.246 89.557 155.914 89.806 156.602 C92.343 163.622 94.871 170.646 97.393 177.672 C97.809 178.829 98.226 179.987 98.655 181.18 C99.422 183.311 100.186 185.443 100.948 187.575 C103.167 193.736 105.589 199.774 108.185 205.786 C109.129 208.195 109.129 208.195 109.129 210.195 C119.581 205.105 123.388 187.753 127.066 177.32 C127.621 175.764 128.176 174.209 128.731 172.653 C140.86 138.484 151.88 103.93 162.878 69.384 C167.213 55.775 171.598 42.181 175.979 28.586 C176.84 25.915 177.701 23.244 178.561 20.572 C180.75 13.78 182.939 6.988 185.129 0.195 C191.304 0.146 197.478 0.11 203.653 0.085 C205.753 0.075 207.853 0.062 209.953 0.044 C212.974 0.02 215.995 0.009 219.016 0 C220.421 -0.015 220.421 -0.015 221.854 -0.031 C230.139 -0.033 230.139 -0.033 234.129 2.195 C236.129 4.195 236.129 4.195 236.452 7.77 C236.318 12.613 234.804 16.566 232.965 21 C232.625 21.851 232.286 22.703 231.936 23.58 C231.195 25.435 230.447 27.289 229.695 29.14 C227.613 34.264 225.578 39.407 223.535 44.547 C223.099 45.641 222.663 46.735 222.213 47.863 C216.989 60.998 211.999 74.221 207.004 87.445 C206.06 89.941 205.115 92.437 204.17 94.933 C202.335 99.782 200.501 104.63 198.668 109.479 C120.407 316.505 120.407 316.505 78.129 364.195 C76.905 365.514 76.905 365.514 75.656 366.859 C60.643 382.558 31.771 406.527 9.441 408.07 C5.956 407.714 5.114 407.183 2.254 404.883 C-3.001 396.982 -6.064 386.498 -4.309 377.07 C-1.457 367.903 6.577 363.723 14.184 358.797 C24.694 351.949 34.086 343.856 43.129 335.195 C43.633 334.718 44.137 334.241 44.657 333.75 C60.045 319.138 76.819 299.716 77.629 277.508 C77.418 272.268 76.656 267.338 75.422 262.254 C75.245 261.516 75.067 260.778 74.885 260.018 C72.957 252.196 70.525 244.571 67.941 236.945 C67.687 236.189 67.433 235.433 67.172 234.654 C60.085 213.615 52.145 192.894 44.129 172.195 C43.749 171.215 43.37 170.234 42.979 169.224 C25.294 123.569 6.962 78.166 -11.253 32.721 C-11.922 31.05 -12.592 29.378 -13.26 27.706 C-14.574 24.423 -15.892 21.144 -17.234 17.872 C-17.781 16.536 -17.781 16.536 -18.339 15.173 C-18.781 14.109 -18.781 14.109 -19.232 13.023 C-20.192 10.278 -20.358 8.05 -19.871 5.195 C-18.02 2.147 -15.305 1.524 -11.972 0.61 C-8.004 -0.173 -4.029 -0.047 0 0 Z " fill="#000000" transform="translate(3601.87109375,113.8046875)"/>
<path d="M0 0 C32.194 33.662 29.258 76.934 29.258 121.312 C-35.752 121.312 -100.762 121.312 -167.742 121.312 C-161.571 154.636 -151.375 184.136 -123.512 205.461 C-109.862 214.586 -96.258 217.454 -80.098 217.48 C-79.298 217.485 -78.498 217.489 -77.674 217.493 C-75.093 217.503 -72.511 217.503 -69.93 217.5 C-69.046 217.5 -68.162 217.5 -67.252 217.5 C-48.25 217.482 -29.439 216.745 -10.645 213.749 C2.865 211.717 2.865 211.717 8.445 215.438 C12.777 222.309 13.076 229.388 12.258 237.312 C9.728 242.652 5.881 246.209 0.418 248.508 C-16.962 253.724 -34.765 254.468 -52.805 254.516 C-53.55 254.518 -54.295 254.521 -55.063 254.524 C-59.01 254.539 -62.957 254.548 -66.904 254.553 C-70.115 254.557 -73.326 254.571 -76.538 254.594 C-111.097 254.834 -142.502 253.148 -169.742 229.312 C-170.474 228.723 -171.207 228.134 -171.961 227.527 C-197.791 206.109 -211.374 170.047 -214.515 137.459 C-218.057 88.366 -205.145 39.127 -172.645 1.369 C-153.031 -20.495 -125.319 -30.487 -96.492 -32.438 C-60.393 -34.28 -26.221 -25.698 0 0 Z M-135.742 17.312 C-136.396 17.789 -137.049 18.266 -137.723 18.758 C-151.795 29.937 -161.927 49.981 -165.742 67.312 C-165.931 72.088 -165.549 75.177 -162.742 79.125 C-149.835 88.536 -132.772 88.482 -117.396 88.426 C-116.321 88.426 -115.247 88.426 -114.14 88.426 C-110.628 88.426 -107.117 88.418 -103.605 88.41 C-101.155 88.408 -98.704 88.407 -96.254 88.406 C-89.834 88.402 -83.415 88.392 -76.995 88.381 C-70.432 88.371 -63.869 88.366 -57.307 88.361 C-44.452 88.351 -31.597 88.334 -18.742 88.312 C-18.703 84.198 -18.675 80.084 -18.656 75.969 C-18.649 74.573 -18.638 73.177 -18.624 71.781 C-18.441 52.555 -22.831 37.853 -36.379 23.621 C-51.257 9.087 -68.721 2.779 -89.417 2.958 C-106.418 3.439 -121.956 6.875 -135.742 17.312 Z " fill="#000000" transform="translate(2758.7421875,142.6875)"/>
<path d="M0 0 C0.71 -0.022 1.42 -0.044 2.151 -0.067 C7.268 -0.046 10.225 1.08 14.062 4.438 C19.85 14.377 19.36 26.641 19.258 37.836 C19.255 39.037 19.252 40.238 19.249 41.475 C19.238 45.254 19.213 49.033 19.188 52.812 C19.177 55.398 19.168 57.984 19.16 60.57 C19.138 66.859 19.105 73.148 19.062 79.438 C19.774 79.433 20.485 79.429 21.217 79.424 C27.94 79.384 34.663 79.353 41.387 79.334 C44.843 79.323 48.298 79.309 51.754 79.287 C55.733 79.261 59.712 79.251 63.691 79.242 C64.924 79.232 66.157 79.222 67.426 79.211 C80.478 79.209 80.478 79.209 86.375 82.875 C91.303 90.358 90.4 100.839 90.062 109.438 C90.033 110.3 90.003 111.162 89.973 112.051 C89.621 117.155 88.54 120.477 85.062 124.438 C77.811 128.788 66.987 127.574 58.809 127.535 C57.667 127.534 56.526 127.532 55.35 127.531 C51.733 127.525 48.117 127.513 44.5 127.5 C42.036 127.495 39.572 127.49 37.107 127.486 C31.092 127.475 25.077 127.459 19.062 127.438 C19.147 141.331 19.243 155.224 19.35 169.117 C19.4 175.571 19.446 182.025 19.484 188.479 C19.522 194.73 19.568 200.98 19.621 207.231 C19.639 209.593 19.654 211.955 19.666 214.317 C18.018 260.424 18.018 260.424 35.621 301.016 C42.042 306.908 48.317 308.796 56.812 309.5 C58.406 309.658 60 309.818 61.594 309.98 C62.359 310.057 63.125 310.134 63.914 310.212 C77.757 311.663 77.757 311.663 83.062 316.438 C88.262 324.423 88.405 333.954 88.375 343.188 C88.391 344.202 88.407 345.216 88.424 346.262 C88.43 355.454 88.43 355.454 85.062 359.438 C84.167 360.516 84.167 360.516 83.254 361.617 C70.059 372.577 42.719 371.327 26.619 369.975 C8.986 368.253 -12.864 362.307 -24.938 348.438 C-35.523 334.944 -38.409 318.891 -40.462 302.268 C-40.591 301.222 -40.72 300.177 -40.853 299.1 C-42.138 288.327 -42.878 277.548 -43.488 266.719 C-43.612 264.605 -43.737 262.492 -43.861 260.378 C-45.192 237.345 -46.117 214.295 -46.998 191.241 C-47.171 186.745 -47.35 182.249 -47.528 177.753 C-47.744 172.325 -47.956 166.897 -48.168 161.469 C-48.208 160.46 -48.247 159.451 -48.288 158.411 C-48.4 155.561 -48.509 152.711 -48.618 149.861 C-48.651 149.036 -48.683 148.21 -48.717 147.359 C-48.916 142.048 -48.965 136.752 -48.938 131.438 C-49.673 131.362 -50.408 131.287 -51.166 131.21 C-54.549 130.858 -57.931 130.492 -61.312 130.125 C-62.469 130.007 -63.625 129.889 -64.816 129.768 C-81.635 127.915 -81.635 127.915 -87.938 123.188 C-92.291 117.202 -92.277 110.705 -92.25 103.562 C-92.266 102.716 -92.282 101.869 -92.299 100.996 C-92.304 94.172 -91.453 87.425 -86.938 82.062 C-80.763 78.718 -73.977 77.606 -67.112 76.418 C-58.343 75.001 -58.343 75.001 -51.938 69.438 C-48.129 60.486 -47.739 50.464 -46.783 40.893 C-44.403 17.435 -44.403 17.435 -37.375 10.438 C-32.66 6.853 -27.59 5.046 -21.938 3.438 C-20.949 3.138 -19.96 2.839 -18.941 2.531 C-12.625 0.828 -6.515 0.115 0 0 Z " fill="#000000" transform="translate(1928.9375,670.5625)"/>
<path d="M0 0 C6.516 5.499 11.438 11.757 15.375 19.297 C15.896 20.286 16.417 21.274 16.953 22.293 C28.618 46.831 29.102 76.129 30.387 102.828 C30.429 103.702 30.472 104.575 30.516 105.475 C31.533 126.624 32.02 147.78 32.439 168.947 C32.52 172.898 32.608 176.848 32.696 180.798 C33.327 209.304 33.451 237.782 33.375 266.297 C17.535 266.297 1.695 266.297 -14.625 266.297 C-14.686 259.207 -14.746 252.117 -14.809 244.812 C-14.849 240.237 -14.89 235.661 -14.932 231.086 C-14.997 223.873 -15.062 216.66 -15.122 209.446 C-15.395 175.732 -15.395 175.732 -16.078 142.023 C-16.095 141.33 -16.113 140.637 -16.131 139.923 C-16.932 82.894 -16.932 82.894 -41.957 33.652 C-55.963 21.287 -72.996 17.993 -91.184 19.074 C-109.802 20.775 -127.506 33.04 -140.105 46.438 C-161.207 72.259 -154.768 115.37 -154.928 146.93 C-154.951 151.146 -154.978 155.362 -155.004 159.577 C-155.054 167.513 -155.099 175.449 -155.142 183.385 C-155.192 192.44 -155.247 201.495 -155.302 210.55 C-155.415 229.132 -155.521 247.714 -155.625 266.297 C-171.465 266.297 -187.305 266.297 -203.625 266.297 C-203.625 172.907 -203.625 79.517 -203.625 -16.703 C-173.625 -16.703 -173.625 -16.703 -167.625 -13.703 C-164.147 -9.865 -163.503 -6.321 -163.16 -1.266 C-163.082 -0.206 -163.004 0.854 -162.924 1.945 C-162.766 4.179 -162.613 6.414 -162.463 8.648 C-162.384 9.708 -162.304 10.768 -162.223 11.859 C-162.156 12.83 -162.089 13.801 -162.02 14.801 C-161.765 17.54 -161.765 17.54 -159.625 20.297 C-151.547 17.522 -145.23 11.126 -139.562 4.922 C-104.33 -30.874 -38.299 -29.956 0 0 Z " fill="#000000" transform="translate(2032.625,130.703125)"/>
<path d="M0 0 C23.76 0 47.52 0 72 0 C72 137.61 72 275.22 72 417 C48.24 417 24.48 417 0 417 C0 279.39 0 141.78 0 0 Z " fill="#000000" transform="translate(3054,616)"/>
<path d="M0 0 C3.253 5.166 2.199 11.859 2.062 17.688 C2.036 18.876 2.036 18.876 2.008 20.088 C1.94 22.726 1.848 25.363 1.75 28 C1.728 28.848 1.705 29.695 1.682 30.568 C1.391 37.277 0.268 42.256 -4.375 47.375 C-12.018 53.136 -23.092 54.503 -32.25 56.375 C-104.028 71.815 -176.6 103.113 -239.292 141.094 C-241.839 142.628 -244.402 144.131 -246.973 145.625 C-260.735 153.664 -273.855 162.593 -286.938 171.688 C-287.641 172.175 -288.345 172.662 -289.069 173.164 C-356.884 218.334 -356.884 218.334 -400.812 283.312 C-402.817 290.377 -406.565 295.955 -412.875 299.898 C-416.817 301.407 -420.803 301.335 -424.938 300.688 C-429.457 297.185 -430.087 292.085 -430.938 286.688 C-431.228 282.716 -431.265 278.758 -431.273 274.777 C-431.28 273.652 -431.287 272.526 -431.294 271.366 C-431.304 268.992 -431.308 266.618 -431.308 264.243 C-431.312 260.66 -431.349 257.078 -431.387 253.494 C-431.545 221.396 -431.545 221.396 -420.938 208.688 C-420.424 208.027 -419.911 207.368 -419.383 206.688 C-415.385 201.79 -410.753 197.954 -405.816 194.031 C-402.979 191.721 -400.302 189.305 -397.625 186.812 C-391.349 181.052 -384.703 175.854 -377.938 170.688 C-377.323 170.216 -376.708 169.744 -376.075 169.258 C-306.109 115.691 -226.553 72.586 -62.23 11.793 C-60.918 11.392 -59.606 10.99 -58.295 10.588 C-7.392 -5.007 -7.392 -5.007 0 0 Z " fill="#33373A" transform="translate(5055.9375,1100.3125)"/>
<path d="M0 0 C2.526 1.893 2.978 2.934 4 6 C4.939 17.943 4.432 33.936 -3.324 43.66 C-13.219 53.405 -30.325 56.348 -43.198 59.978 C-48.581 61.498 -53.954 63.055 -59.328 64.609 C-60.368 64.91 -61.407 65.21 -62.478 65.519 C-122.151 82.791 -179.38 110.962 -233 142 C-234.143 142.659 -235.285 143.318 -236.462 143.997 C-252.556 153.287 -268.446 162.824 -284 173 C-284.794 173.519 -285.589 174.038 -286.407 174.573 C-297.443 181.806 -308.292 189.291 -319 197 C-320.179 197.848 -320.179 197.848 -321.381 198.712 C-330.572 205.343 -339.571 212.082 -348.121 219.523 C-350.711 221.752 -353.364 223.844 -356.062 225.938 C-373.748 240.393 -393.382 257.924 -395.938 281.75 C-396.875 289.756 -396.875 289.756 -399.188 292.812 C-404.322 296.806 -409.612 297.57 -416 297 C-419.45 295.85 -422.097 294.81 -424.812 292.375 C-428.158 285.683 -428.318 278.18 -428.336 270.84 C-428.346 269.418 -428.346 269.418 -428.356 267.967 C-428.366 265.969 -428.371 263.971 -428.371 261.974 C-428.375 258.97 -428.411 255.967 -428.449 252.963 C-428.577 231.188 -424.366 215.983 -409 200 C-408.312 199.26 -407.623 198.52 -406.914 197.758 C-401.119 191.704 -394.657 186.63 -388.02 181.554 C-385.865 179.896 -383.726 178.22 -381.59 176.539 C-373.16 169.916 -364.639 163.494 -355.871 157.328 C-353.022 155.306 -350.203 153.243 -347.379 151.186 C-338.73 144.893 -329.98 138.81 -321 133 C-319.956 132.323 -319.956 132.323 -318.891 131.631 C-278.329 105.408 -235.264 82.475 -191.298 62.509 C-188.08 61.036 -184.876 59.536 -181.676 58.023 C-41.927 -7.825 -41.927 -7.825 0 0 Z " fill="#BBBDBF" transform="translate(5053,1255)"/>
<path d="M0 0 C2.613 2.086 3.818 3.813 4.875 6.984 C5.138 11.397 5.106 15.815 5.125 20.234 C5.156 22.058 5.156 22.058 5.188 23.918 C5.22 31.258 5.151 36.837 0.465 42.77 C-8.873 49.988 -21.628 52.363 -32.842 55.286 C-73.156 65.801 -112.085 81.114 -150.125 97.984 C-150.758 98.264 -151.39 98.544 -152.042 98.832 C-181.434 111.836 -210.43 125.627 -238.125 141.984 C-239.039 142.522 -239.954 143.06 -240.896 143.614 C-268.384 159.85 -294.92 177.848 -320.129 197.434 C-322.02 198.903 -323.916 200.366 -325.812 201.828 C-338.813 211.897 -351.227 222.635 -363.125 233.984 C-363.741 234.571 -364.356 235.158 -364.99 235.763 C-379.76 249.943 -393.921 264.272 -395.605 285.637 C-396.154 289.174 -396.983 291.142 -399.125 293.984 C-404.884 297.463 -410.501 297.704 -417.125 296.984 C-421.221 295.668 -422.613 294.779 -424.938 291.172 C-426.913 285.87 -427.283 280.63 -427.54 275.008 C-427.586 274.001 -427.586 274.001 -427.633 272.975 C-427.901 266.801 -428.063 260.624 -428.192 254.445 C-428.279 250.308 -428.403 246.179 -428.613 242.045 C-429.933 215.431 -429.933 215.431 -425.349 208.172 C-421.082 203.703 -416.199 200.894 -410.651 198.281 C-406.276 196.036 -402.506 192.981 -398.625 189.984 C-397.044 188.814 -395.461 187.647 -393.875 186.484 C-393.091 185.907 -392.307 185.329 -391.5 184.734 C-387.938 182.109 -387.938 182.109 -384.375 179.484 C-383.591 178.907 -382.807 178.329 -382 177.734 C-380.417 176.568 -378.835 175.402 -377.252 174.237 C-373.279 171.31 -369.308 168.382 -365.34 165.449 C-361.363 162.511 -357.381 159.582 -353.396 156.656 C-351.276 155.096 -349.165 153.525 -347.055 151.953 C-275.488 99.034 -193.71 56.916 0 0 Z " fill="#137CC0" transform="translate(5052.125,925.015625)"/>
<path d="M0 0 C3.782 3.447 4.953 7.818 6.648 12.566 C7.067 13.695 7.485 14.825 7.916 15.988 C8.869 18.573 9.816 21.161 10.752 23.752 C12.155 27.637 13.577 31.513 15.003 35.389 C26.577 66.864 37.762 98.481 48.84 130.134 C62.07 173.746 62.07 173.746 82.336 214.129 C83.326 214.459 84.316 214.789 85.336 215.129 C89.257 205.505 92.951 195.836 96.391 186.027 C96.854 184.715 97.317 183.402 97.781 182.089 C98.757 179.323 99.731 176.557 100.704 173.79 C102.235 169.433 103.772 165.077 105.308 160.721 C105.827 159.25 106.346 157.779 106.865 156.307 C107.122 155.581 107.378 154.854 107.642 154.105 C108.417 151.91 109.191 149.715 109.964 147.519 C114.569 134.457 119.21 121.408 123.863 108.362 C127.292 98.745 130.697 89.121 134.039 79.473 C139.265 64.391 144.494 49.322 150.273 34.441 C150.686 33.368 151.098 32.295 151.523 31.189 C161.076 7.046 161.076 7.046 170.781 0.473 C175.916 -1.468 180.706 -1.306 186.148 -1.246 C187.191 -1.258 188.233 -1.269 189.307 -1.281 C203.981 -1.226 203.981 -1.226 208.336 3.129 C207.899 8.919 206.61 13.908 204.625 19.34 C204.346 20.124 204.066 20.908 203.778 21.715 C202.848 24.315 201.905 26.909 200.961 29.504 C200.289 31.366 199.618 33.228 198.946 35.09 C190.699 57.878 182.041 80.513 173.336 103.129 C172.947 104.14 172.558 105.151 172.157 106.193 C166.68 120.419 161.163 134.629 155.622 148.831 C154.281 152.269 152.942 155.708 151.602 159.146 C106.69 274.373 106.69 274.373 91.978 281.227 C87.519 282.749 83.069 282.457 78.398 282.441 C76.934 282.466 76.934 282.466 75.439 282.49 C68.88 282.495 64.517 281.75 59.316 277.465 C35.245 251.139 25.06 205.657 12.766 172.933 C11.267 168.946 9.767 164.959 8.267 160.972 C-5.345 124.796 -18.869 88.589 -32.296 52.344 C-33.33 49.554 -34.364 46.764 -35.398 43.974 C-35.892 42.643 -36.385 41.312 -36.877 39.981 C-39.27 33.515 -41.679 27.057 -44.174 20.63 C-44.744 19.16 -44.744 19.16 -45.325 17.66 C-46.018 15.88 -46.716 14.101 -47.422 12.326 C-47.721 11.556 -48.021 10.787 -48.329 9.995 C-48.589 9.339 -48.849 8.682 -49.117 8.006 C-49.664 6.129 -49.664 6.129 -49.664 2.129 C-7.713 -2.522 -7.713 -2.522 0 0 Z " fill="#000000" transform="translate(2304.6640625,114.87109375)"/>
<path d="M0 0 C5.002 8.796 4.182 19.126 4.188 28.938 C4.2 30.161 4.212 31.385 4.225 32.646 C4.254 50.879 4.254 50.879 -1.285 56.738 C-8.392 61.969 -18.473 63.053 -26.938 64.5 C-41.019 66.915 -57.376 69.894 -66.633 81.922 C-81.243 104.129 -80.893 133.764 -81.527 159.383 C-81.548 160.175 -81.568 160.966 -81.589 161.782 C-82.194 185.587 -82.338 209.4 -82.532 233.21 C-82.593 240.514 -82.658 247.818 -82.723 255.122 C-82.819 266.081 -82.909 277.041 -83 288 C-106.43 288 -129.86 288 -154 288 C-154 194.61 -154 101.22 -154 5 C-109 5 -109 5 -101 9 C-97.952 15.096 -97.847 21.184 -97.684 27.902 C-97.663 28.625 -97.642 29.347 -97.621 30.092 C-97.556 32.374 -97.497 34.656 -97.438 36.938 C-97.394 38.495 -97.351 40.053 -97.307 41.611 C-97.2 45.407 -97.099 49.204 -97 53 C-95.422 51.282 -93.847 49.561 -92.273 47.84 C-91.396 46.882 -90.519 45.924 -89.615 44.937 C-87.188 42.211 -84.889 39.425 -82.625 36.562 C-66.583 16.846 -27.43 -17.433 0 0 Z " fill="#000000" transform="translate(2533,745)"/>
<path d="M0 0 C4.96 7.63 3.888 17.659 3.82 26.379 C3.817 27.801 3.814 29.223 3.812 30.645 C3.804 34.359 3.785 38.072 3.762 41.786 C3.742 45.587 3.733 49.388 3.723 53.189 C3.701 60.626 3.667 68.063 3.625 75.5 C4.688 75.49 4.688 75.49 5.773 75.48 C12.481 75.419 19.189 75.374 25.897 75.345 C29.345 75.329 32.793 75.308 36.241 75.274 C40.213 75.235 44.184 75.22 48.156 75.207 C49.997 75.184 49.997 75.184 51.876 75.16 C65.812 75.157 65.812 75.157 71.261 79.934 C74.958 84.178 74.897 89.579 74.875 94.938 C74.883 96.823 74.883 96.823 74.891 98.746 C74.541 103.689 73.92 107.954 70.688 111.812 C62.671 116.23 52.875 115.779 43.957 115.695 C42.796 115.692 41.635 115.69 40.439 115.687 C36.772 115.676 33.105 115.651 29.438 115.625 C26.934 115.615 24.431 115.606 21.928 115.598 C15.827 115.576 9.726 115.542 3.625 115.5 C3.733 134.043 3.846 152.586 3.964 171.129 C4.019 179.741 4.073 188.353 4.122 196.965 C4.166 204.482 4.212 211.998 4.262 219.514 C4.288 223.485 4.313 227.456 4.334 231.426 C4.423 251.987 4.423 251.987 5.071 272.536 C5.107 273.332 5.143 274.127 5.181 274.947 C6.079 293.099 6.079 293.099 14.625 308.5 C28.207 319.19 43.079 325.066 60.391 324.277 C64.063 324.53 65.76 325.22 68.625 327.5 C71.523 331.974 73.184 337.206 73.625 342.5 C73.7 343.223 73.775 343.946 73.852 344.691 C74.111 348.839 74.026 350.893 71.688 354.438 C64.647 359.179 56.12 358.808 47.898 358.801 C46.24 358.807 46.24 358.807 44.547 358.814 C42.216 358.819 39.885 358.82 37.553 358.816 C34.031 358.813 30.51 358.836 26.988 358.861 C8.61 358.914 -8.107 358.701 -22.332 345.641 C-37.951 329.275 -42.085 311.592 -43.476 289.691 C-43.519 289.029 -43.561 288.367 -43.605 287.684 C-44.649 271.013 -44.636 254.351 -44.578 237.654 C-44.565 233.337 -44.564 229.019 -44.562 224.702 C-44.556 216.582 -44.539 208.462 -44.519 200.342 C-44.496 191.075 -44.486 181.807 -44.476 172.539 C-44.455 153.526 -44.42 134.513 -44.375 115.5 C-45.328 115.516 -46.28 115.531 -47.261 115.548 C-50.834 115.602 -54.407 115.637 -57.98 115.665 C-59.519 115.68 -61.058 115.7 -62.597 115.726 C-82.382 116.054 -82.382 116.054 -88.028 111.029 C-91.98 106.543 -91.711 101.271 -91.688 95.625 C-91.712 94.459 -91.712 94.459 -91.736 93.27 C-91.741 87.932 -90.864 84.236 -88.375 79.5 C-84.705 75.948 -80.92 75.411 -75.961 75.254 C-75.122 75.223 -74.283 75.192 -73.418 75.159 C-72.097 75.111 -72.097 75.111 -70.75 75.062 C-58.201 75.278 -58.201 75.278 -47.812 69.75 C-45.358 64.2 -45.219 58.674 -45.129 52.68 C-45.096 51.159 -45.063 49.638 -45.029 48.117 C-44.982 45.755 -44.938 43.392 -44.898 41.029 C-44.423 13.926 -44.423 13.926 -36.375 5.375 C-27.341 -0.271 -9.895 -6.25 0 0 Z " fill="#000000" transform="translate(3475.375,38.5)"/>
<path d="M0 0 C0.993 0.003 0.993 0.003 2.006 0.007 C19.637 0.099 39.392 1.903 52.895 14.602 C56.725 19.224 57.616 24.591 57.137 30.469 C56.403 34.443 55.921 35.811 52.664 38.496 C48.91 40.531 46.496 40.933 42.25 41.125 C41.217 41.172 41.217 41.172 40.164 41.22 C33.672 41.446 27.218 41.088 20.737 40.729 C-11.616 37.959 -11.616 37.959 -40.52 49.91 C-46.657 56.466 -48.674 64.479 -48.688 73.312 C-47.842 84.055 -43.624 93.914 -35.688 101.312 C-23.052 111.923 -9.237 118.614 5.769 125.101 C20.249 131.396 34.184 138.068 46.312 148.312 C46.813 148.731 47.314 149.15 47.83 149.581 C63.22 162.573 75.506 179.72 77.312 200.312 C78.86 223 69.111 241.796 54.578 258.469 C49.518 264.17 44.242 269.509 38.312 274.312 C37.606 274.907 36.9 275.501 36.172 276.113 C18.539 290.509 -1.686 289.787 -23.451 289.649 C-27.416 289.625 -31.379 289.628 -35.344 289.635 C-87.728 289.577 -87.728 289.577 -99.688 280.312 C-103.646 275.56 -104.312 270.078 -104.078 264.059 C-103.174 257.704 -100.228 251.853 -95.688 247.312 C-91.51 244.464 -88.859 244.155 -83.909 244.872 C-80.074 245.633 -76.441 246.92 -72.75 248.188 C-46.992 256.547 -17.632 258.516 7.312 246.312 C16.973 240.645 23.682 233.578 26.84 222.688 C28.863 212.52 26.548 203.844 21.375 195 C17.271 189.653 13.5 185.309 7.938 181.438 C7.323 181.008 6.709 180.578 6.075 180.135 C-4.371 172.974 -15.542 167.885 -27.125 162.875 C-54.512 151.011 -81.882 135.232 -93.688 106.312 C-100.211 86.883 -98.952 68.329 -89.938 49.938 C-86.581 43.425 -82.665 37.715 -77.688 32.312 C-76.977 31.534 -76.267 30.755 -75.535 29.953 C-55.824 9.306 -28.035 -0.124 0 0 Z " fill="#000000" transform="translate(3135.6875,107.6875)"/>
<path d="M0 0 C1.325 0.014 1.325 0.014 2.676 0.027 C3.672 0.045 3.672 0.045 4.688 0.062 C5.341 1.288 5.985 2.518 6.625 3.75 C7.164 4.777 7.164 4.777 7.715 5.824 C10.283 11.735 9.906 18.052 9.938 24.375 C9.968 25.886 9.968 25.886 10 27.428 C10.033 33.703 9.383 38.37 6.688 44.062 C2.32 48.43 -2.65 48.169 -8.562 48.375 C-24.582 49.194 -39.662 53.16 -50.93 65.152 C-78.405 98.708 -75.363 153.344 -75.616 194.028 C-75.638 197.453 -75.665 200.877 -75.692 204.302 C-75.741 210.754 -75.786 217.206 -75.83 223.658 C-75.88 231.018 -75.934 238.377 -75.99 245.737 C-76.103 260.845 -76.209 275.954 -76.312 291.062 C-92.153 291.062 -107.992 291.062 -124.312 291.062 C-124.312 197.673 -124.312 104.282 -124.312 8.062 C-94.312 8.062 -94.312 8.062 -88.312 11.062 C-84.834 16.58 -84.213 21.839 -84.031 28.246 C-83.975 30.009 -83.975 30.009 -83.918 31.807 C-83.866 33.635 -83.866 33.635 -83.812 35.5 C-83.743 37.915 -83.671 40.331 -83.594 42.746 C-83.563 43.814 -83.533 44.882 -83.502 45.982 C-83.312 49.068 -82.875 52.025 -82.312 55.062 C-81.527 54.145 -80.742 53.227 -79.934 52.281 C-77.221 49.112 -74.505 45.945 -71.787 42.78 C-70.602 41.4 -69.42 40.017 -68.238 38.633 C-66.62 36.754 -64.975 34.903 -63.312 33.062 C-62.772 32.445 -62.232 31.828 -61.676 31.191 C-47.59 16.006 -21.216 -0.283 0 0 Z " fill="#000000" transform="translate(2982.3125,105.9375)"/>
<path d="M0 0 C2.312 -0.001 4.625 -0.003 6.937 -0.005 C15.059 -0.015 23.181 -0.019 31.303 -0.018 C38.786 -0.017 46.269 -0.028 53.752 -0.044 C60.253 -0.057 66.754 -0.062 73.255 -0.062 C77.105 -0.061 80.954 -0.064 84.803 -0.075 C155.154 -0.259 155.154 -0.259 175.423 19.804 C186.466 31.321 192.22 42.859 193.075 58.937 C193.116 59.702 193.158 60.467 193.2 61.255 C193.718 71.607 193.875 81.97 194.05 92.333 C194.11 95.832 194.175 99.331 194.241 102.829 C194.732 129.741 194.468 156.631 194.11 183.542 C194.099 184.4 194.088 185.258 194.076 186.141 C193.918 198.071 193.753 210 193.58 221.929 C193.55 224.034 193.519 226.139 193.489 228.244 C192.024 329.059 192.024 329.059 175.548 347.167 C175.078 347.685 174.608 348.203 174.123 348.736 C159.098 365.075 143.52 368.351 121.76 369.339 C117.455 369.497 113.148 369.613 108.841 369.722 C108.047 369.743 107.252 369.764 106.434 369.785 C87.791 370.269 69.15 370.326 50.501 370.296 C47.811 370.292 45.12 370.29 42.43 370.288 C-71.921 370.182 -71.921 370.182 -87.452 363.167 C-86.957 361.187 -86.957 361.187 -86.452 359.167 C-81.546 357.647 -76.785 356.668 -71.673 356.11 C-70.569 355.986 -70.569 355.986 -69.442 355.86 C-60.952 354.947 -52.449 354.468 -43.921 354.077 C-43.042 354.036 -42.163 353.994 -41.257 353.951 C-16.728 352.815 7.821 352.755 32.372 352.625 C42.156 352.572 51.94 352.506 61.724 352.436 C65.068 352.414 68.412 352.398 71.756 352.382 C82.671 352.318 93.571 352.117 104.479 351.707 C106.062 351.648 106.062 351.648 107.676 351.587 C134.51 351.168 134.51 351.168 157.52 339.23 C175.019 318.424 171.41 281.758 172.067 256.077 C172.088 255.29 172.109 254.503 172.13 253.692 C172.621 234.936 172.891 216.178 173.11 197.417 C173.12 196.559 173.131 195.7 173.141 194.816 C173.424 170.954 173.667 147.092 173.724 123.228 C173.73 120.529 173.742 117.829 173.756 115.129 C175.467 70.853 175.467 70.853 157.548 32.167 C134.942 13.474 97.964 16.889 70.538 16.832 C66.594 16.823 62.65 16.803 58.706 16.779 C50.32 16.731 41.934 16.698 33.548 16.667 C22.506 16.626 11.464 16.58 0.423 16.511 C-0.573 16.505 -0.573 16.505 -1.589 16.498 C-17.965 16.393 -34.315 16.176 -50.667 15.234 C-51.373 15.193 -52.078 15.153 -52.805 15.111 C-76.909 13.682 -76.909 13.682 -87.452 10.167 C-87.452 8.847 -87.452 7.527 -87.452 6.167 C-83.37 4.686 -79.612 3.801 -75.296 3.351 C-74.106 3.226 -72.916 3.102 -71.691 2.974 C-70.457 2.852 -69.223 2.73 -67.952 2.605 C-66.78 2.479 -65.609 2.353 -64.401 2.224 C-42.987 0.046 -21.502 0.004 0 0 Z " fill="#000000" transform="translate(4712.452235221863,223.83274292945862)"/>
<path d="M0 0 C15.84 0 31.68 0 48 0 C48 93.39 48 186.78 48 283 C32.16 283 16.32 283 0 283 C0 189.61 0 96.22 0 0 Z " fill="#000000" transform="translate(3282,114)"/>
<path d="M0 0 C15.84 0 31.68 0 48 0 C48 93.39 48 186.78 48 283 C32.16 283 16.32 283 0 283 C0 189.61 0 96.22 0 0 Z " fill="#000000" transform="translate(2151,114)"/>
<path d="M0 0 C2.547 -0.003 5.095 -0.007 7.642 -0.01 C12.961 -0.016 18.28 -0.018 23.599 -0.017 C28.948 -0.017 34.296 -0.024 39.645 -0.038 C175.671 -0.382 175.671 -0.382 187.746 10.543 C191.704 20.978 193.111 32.105 194.121 43.168 C194.209 44.105 194.298 45.042 194.389 46.008 C195.482 59.597 195.366 73.232 195.371 86.855 C195.372 87.854 195.372 87.854 195.372 88.873 C195.378 168.655 195.378 168.655 185.121 189.168 C158.97 189.215 132.819 189.25 106.668 189.272 C94.521 189.282 82.374 189.296 70.227 189.319 C59.618 189.339 49.009 189.352 38.4 189.356 C32.802 189.359 27.204 189.365 21.606 189.379 C-0.057 189.435 -21.679 189.331 -43.321 188.281 C-44.142 188.242 -44.964 188.203 -45.811 188.163 C-54.411 187.743 -62.976 187.134 -71.539 186.223 C-72.259 186.149 -72.979 186.075 -73.721 185.998 C-78.576 185.449 -83.159 184.435 -87.879 183.168 C-87.879 181.848 -87.879 180.528 -87.879 179.168 C-79.324 176.872 -70.875 175.745 -62.066 175.043 C-60.676 174.93 -60.676 174.93 -59.258 174.815 C-55.8 174.561 -52.341 174.361 -48.879 174.168 C-48.147 174.126 -47.415 174.084 -46.661 174.041 C-25.109 172.864 -3.543 173.037 18.032 173.067 C23.431 173.073 28.829 173.073 34.227 173.075 C44.409 173.078 54.59 173.086 64.771 173.096 C76.38 173.107 87.988 173.113 99.597 173.118 C123.438 173.128 147.28 173.146 171.121 173.168 C171.1 172.524 171.08 171.881 171.059 171.218 C170.554 155.446 170.053 139.673 169.556 123.901 C169.316 116.273 169.075 108.646 168.83 101.018 C168.616 94.358 168.405 87.698 168.197 81.037 C168.087 77.521 167.976 74.006 167.862 70.49 C167.328 54.043 166.993 37.624 167.121 21.168 C166.32 21.154 165.519 21.141 164.694 21.127 C144.949 20.791 125.204 20.448 105.459 20.098 C95.91 19.929 86.36 19.762 76.811 19.601 C3.077 18.35 3.077 18.35 -25.047 17.156 C-25.973 17.117 -26.9 17.078 -27.854 17.038 C-71.971 15.137 -71.971 15.137 -87.879 10.168 C-87.754 8.293 -87.754 8.293 -86.879 6.168 C-82.792 4.321 -78.756 3.782 -74.32 3.352 C-72.407 3.165 -72.407 3.165 -70.455 2.975 C-69.792 2.914 -69.128 2.853 -68.445 2.79 C-66.505 2.611 -64.566 2.418 -62.627 2.225 C-41.793 0.248 -20.913 0.006 0 0 Z " fill="#000000" transform="translate(4712.87890625,631.83203125)"/>
<path d="M0 0 C5.569 0.013 11.138 0.014 16.707 0.016 C27.171 0.022 37.635 0.038 48.099 0.059 C60.047 0.081 71.994 0.092 83.942 0.102 C108.443 0.123 132.944 0.159 157.446 0.203 C157.446 16.043 157.446 31.883 157.446 48.203 C133.833 48.226 110.221 48.244 86.609 48.255 C75.641 48.26 64.673 48.267 53.705 48.278 C44.125 48.288 34.546 48.295 24.967 48.297 C19.913 48.298 14.858 48.301 9.804 48.309 C-9.709 48.336 -29.21 48.286 -48.718 47.751 C-49.453 47.731 -50.189 47.711 -50.947 47.691 C-96.599 46.413 -96.599 46.413 -116.554 42.203 C-116.884 40.883 -117.214 39.563 -117.554 38.203 C-98.745 29.839 -71.233 32.234 -50.824 31.672 C-49.713 31.64 -49.713 31.64 -48.58 31.608 C-34.007 31.209 -19.433 31.063 -4.855 30.957 C-3.16 30.944 -3.16 30.944 -1.43 30.931 C9.109 30.854 19.648 30.784 30.188 30.726 C53.628 30.594 77.048 30.417 100.465 29.293 C101.295 29.254 102.124 29.216 102.979 29.176 C120.337 29.1 120.337 29.1 136.446 24.203 C127.655 22.09 118.953 20.825 109.946 20.078 C109.054 20.003 108.162 19.927 107.243 19.85 C88.537 18.413 69.76 18.024 51.008 17.703 C48.733 17.661 46.458 17.619 44.182 17.578 C30.461 17.333 16.74 17.154 3.017 17.015 C0.39 16.988 -2.237 16.96 -4.864 16.932 C-6.628 16.913 -8.392 16.894 -10.156 16.875 C-11.469 16.861 -11.469 16.861 -12.808 16.846 C-17.115 16.8 -21.421 16.758 -25.728 16.724 C-43.582 16.581 -61.396 16.25 -79.226 15.265 C-79.97 15.225 -80.714 15.185 -81.481 15.143 C-110.921 13.52 -110.921 13.52 -117.554 10.203 C-117.224 8.883 -116.894 7.563 -116.554 6.203 C-111.331 4.554 -106.351 3.674 -100.907 3.147 C-99.669 3.023 -99.669 3.023 -98.406 2.897 C-88.925 1.988 -79.43 1.495 -69.917 1.09 C-68.48 1.027 -68.48 1.027 -67.014 0.963 C-44.677 0.002 -22.354 -0.061 0 0 Z " fill="#000000" transform="translate(4742.554332971573,851.7972121238708)"/>
<path d="M0 0 C7.475 6.197 12.026 13.247 13.047 23.004 C13.365 33.19 12.107 41.04 5.043 48.633 C-0.886 54.097 -9.131 60.304 -17.484 60.41 C-27.237 59.777 -33.73 53.082 -40.332 46.383 C-46.529 38.548 -50.216 30.339 -49.086 20.168 C-47.38 12.301 -42.788 6.868 -36.332 2.383 C-26.413 -2.977 -10.198 -6.439 0 0 Z " fill="#000000" transform="translate(2193.33203125,6.6171875)"/>
<path d="M0 0 C3.572 0.011 7.143 0.005 10.715 -0.007 C23.388 -0.042 36.055 -0.046 48.688 1.089 C49.89 1.193 49.89 1.193 51.117 1.298 C57.015 1.923 63.676 2.875 68.453 6.616 C70.31 9.021 70.201 11.381 70.055 14.331 C69.723 16.261 69.723 16.261 68.348 18.573 C58.269 25.053 44.934 24.447 33.41 24.823 C32.141 24.865 30.871 24.907 29.563 24.95 C-50.02 27.36 -50.02 27.36 -61.277 17.511 C-62.78 14.13 -62.174 11.784 -61.277 8.261 C-56.936 2.992 -49.861 1.941 -43.41 1.298 C-42.124 1.195 -42.124 1.195 -40.812 1.089 C-39.875 1.009 -38.939 0.93 -37.973 0.848 C-25.337 -0.105 -12.664 -0.041 0 0 Z " fill="#B6B8BA" transform="translate(4757.277099609375,678.7392578125)"/>
<path d="M0 0 C7.367 5.388 14.618 12.758 16.391 22.047 C16.672 27.24 15.233 31.073 12 35 C6.426 40.79 0.241 45.73 -6.25 50.438 C-6.816 50.85 -7.381 51.263 -7.964 51.689 C-12.597 54.956 -18.132 58.832 -24.062 57.938 C-32.417 56.411 -38.468 49.421 -43.312 42.875 C-47.265 35.245 -47.78 25.823 -45.883 17.562 C-42.984 9.149 -36.739 2.439 -29.168 -2.098 C-19.929 -6.279 -8.598 -5.027 0 0 Z " fill="#000000" transform="translate(3321,9)"/>
<path d="M0 0 C0 0.33 0 0.66 0 1 C-1.181 1.193 -2.362 1.387 -3.578 1.586 C-5.135 1.849 -6.693 2.112 -8.25 2.375 C-9.416 2.564 -9.416 2.564 -10.605 2.758 C-16.034 3.679 -16.034 3.679 -21 6 C-21 6.99 -21 7.98 -21 9 C-4.642 15.664 14.416 14.345 31.729 14.316 C35.663 14.313 39.596 14.336 43.529 14.361 C69.325 15.201 69.325 15.201 94 9 C94 8.01 94 7.02 94 6 C86.29 2.466 78.344 1.861 70 1 C70 0.67 70 0.34 70 0 C79.554 -0.472 90.605 -0.489 98.875 4.859 C101 7 101 7 101.629 9 C101.519 12.296 101.335 14.437 99.625 17.312 C89.546 23.792 76.211 23.186 64.688 23.562 C63.418 23.604 62.148 23.646 60.84 23.689 C-18.743 26.1 -18.743 26.1 -30 16.25 C-31.502 12.869 -30.897 10.523 -30 7 C-26.418 2.624 -21.092 1.443 -15.75 0.312 C-10.496 -0.125 -5.268 -0.078 0 0 Z " fill="#7B7A7B" transform="translate(4726,680)"/>
<path d="M0 0 C0 0.33 0 0.66 0 1 C-1.158 1.193 -2.315 1.387 -3.508 1.586 C-5.047 1.849 -6.586 2.112 -8.125 2.375 C-8.886 2.501 -9.646 2.628 -10.43 2.758 C-14.778 3.508 -18.841 4.472 -23 6 C-22.741 11.581 -22.741 11.581 -20.25 16.375 C-14.968 20.19 -9.497 20.551 -3.188 21.125 C-1.862 21.255 -1.862 21.255 -0.51 21.387 C1.66 21.598 3.83 21.8 6 22 C6 22.33 6 22.66 6 23 C-21.351 23.818 -21.351 23.818 -30 16.25 C-31.502 12.869 -30.897 10.523 -30 7 C-26.418 2.624 -21.092 1.443 -15.75 0.312 C-10.496 -0.125 -5.268 -0.078 0 0 Z " fill="#373B3E" transform="translate(4726,680)"/>
<path d="M0 0 C9.554 -0.472 20.605 -0.489 28.875 4.859 C31 7 31 7 31.629 9 C31.519 12.296 31.335 14.437 29.625 17.312 C23.263 21.403 16.432 22.413 9 22 C9 21.67 9 21.34 9 21 C9.592 20.879 10.183 20.758 10.793 20.633 C18.382 19.47 18.382 19.47 24.312 15.25 C25.226 12.259 25.463 10.108 25 7 C19.012 1.411 7.765 1.628 0 1 C0 0.67 0 0.34 0 0 Z " fill="#3B3E41" transform="translate(4796,680)"/>
</svg>