
<!-- Generator: visioncortex VTracer 0.6.4 -->
<svg version="1.1" xmlns="http://www.w3.org/2000/svg" viewBox="0 0 2491 3150" preserveAspectRatio="xMidYMid meet">
<path d="M0 0 C17.391 1.583 34.781 3.174 52.171 4.774 C60.251 5.518 68.332 6.259 76.414 6.993 C138.595 12.648 138.595 12.648 168.109 16.219 C169.568 16.395 169.568 16.395 171.056 16.575 C266.256 28.167 359.833 49.344 650 161 C650.999 161.488 651.997 161.977 653.026 162.48 C665.283 168.476 677.281 174.885 689.227 181.477 C691.957 182.976 694.695 184.46 697.438 185.938 C711.136 193.329 724.607 201.07 738 209 C738.89 209.526 739.78 210.053 740.697 210.595 C752.033 217.311 763.237 224.217 774.344 231.306 C777.289 233.184 780.238 235.055 783.188 236.926 C794.199 243.925 805.138 250.988 815.822 258.478 C818.36 260.252 820.906 262.013 823.453 263.773 C842.663 277.067 861.474 290.769 880 305 C881.242 305.951 882.484 306.901 883.727 307.852 C886.826 310.224 889.915 312.609 893 315 C893.536 315.415 894.072 315.83 894.624 316.257 C907.496 326.244 920.063 336.606 932.467 347.168 C935.793 349.996 939.163 352.76 942.562 355.5 C947.633 359.625 952.432 363.996 957.223 368.438 C960.112 371.104 963.055 373.696 966.023 376.273 C972.997 382.365 979.826 388.626 986.634 394.901 C988.745 396.847 990.862 398.786 992.984 400.72 C1004.841 411.601 1016.171 423.018 1027.537 434.406 C1030.439 437.314 1033.346 440.218 1036.254 443.12 C1038.524 445.386 1040.792 447.655 1043.059 449.925 C1044.129 450.996 1045.201 452.067 1046.273 453.137 C1052.065 458.918 1057.676 464.783 1063 471 C1064.302 472.416 1065.612 473.825 1066.938 475.219 C1067.605 475.924 1068.273 476.629 1068.961 477.355 C1069.634 478.063 1070.307 478.771 1071 479.5 C1078.212 487.085 1085.089 494.91 1091.875 502.875 C1095.424 507.032 1099.007 511.146 1102.688 515.188 C1106.845 519.775 1110.759 524.53 1114.651 529.342 C1116.757 531.931 1118.886 534.499 1121.012 537.071 C1131.056 549.226 1140.939 561.492 1150.498 574.033 C1152.271 576.354 1154.05 578.671 1155.828 580.988 C1162.534 589.738 1169.189 598.505 1175.535 607.52 C1177.308 610.037 1179.112 612.529 1180.934 615.012 C1189.283 626.409 1197.149 638.093 1204.934 649.881 C1206.996 652.994 1209.072 656.098 1211.152 659.199 C1234.813 694.474 1256.854 730.83 1276.918 768.273 C1278.828 771.838 1280.762 775.386 1282.738 778.914 C1298.695 807.492 1312.97 837.06 1326.217 866.981 C1327.736 870.411 1329.271 873.833 1330.811 877.254 C1340.118 897.945 1348.813 918.841 1357 940 C1357.3 940.775 1357.6 941.549 1357.909 942.348 C1379.736 998.827 1397.997 1056.343 1413 1115 C1413.221 1115.859 1413.442 1116.718 1413.669 1117.604 C1421.104 1146.534 1427.347 1175.671 1433 1205 C1433.182 1205.942 1433.364 1206.884 1433.551 1207.854 C1444.535 1265.006 1452.269 1322.843 1455 1381 C1455.042 1381.872 1455.085 1382.745 1455.128 1383.644 C1456.031 1402.68 1456.203 1421.697 1456.188 1440.75 C1456.187 1441.513 1456.187 1442.277 1456.187 1443.063 C1456.147 1534.372 1446.721 1625.258 1430 1715 C1429.747 1716.363 1429.747 1716.363 1429.488 1717.754 C1417.363 1782.771 1400.9 1846.943 1381 1910 C1380.725 1910.874 1380.45 1911.749 1380.166 1912.65 C1359.908 1976.976 1335.512 2039.879 1307 2101 C1306.512 2102.047 1306.024 2103.094 1305.521 2104.173 C1302.092 2111.487 1298.565 2118.752 1295 2126 C1294.627 2126.76 1294.253 2127.52 1293.869 2128.303 C1283.854 2148.679 1273.843 2168.984 1262.384 2188.595 C1260.549 2191.783 1258.806 2195.017 1257.062 2198.255 C1249.881 2211.567 1241.974 2224.436 1234.042 2237.307 C1233.051 2238.917 1232.064 2240.53 1231.077 2242.143 C1220.892 2258.783 1210.077 2274.946 1199 2291 C1198.421 2291.842 1197.842 2292.684 1197.246 2293.551 C1189.452 2304.862 1181.172 2315.785 1172.793 2326.667 C1171.261 2328.66 1169.735 2330.658 1168.215 2332.66 C1158.221 2345.774 1147.715 2358.471 1137 2371 C1136.527 2371.554 1136.055 2372.107 1135.568 2372.678 C1129.363 2379.945 1123.12 2387.178 1116.856 2394.394 C1112.726 2399.155 1108.62 2403.936 1104.524 2408.726 C1100.828 2413.044 1097.105 2417.337 1093.375 2421.625 C1087.826 2428.01 1082.383 2434.475 1077 2441 C1067.95 2433.801 1060.433 2424.874 1052.898 2416.145 C1050.868 2413.851 1048.788 2411.613 1046.698 2409.374 C1022.543 2383.468 1022.543 2383.468 1022.723 2369.684 C1024.73 2350.263 1047.794 2331.759 1060.48 2318.309 C1072.246 2305.816 1083.011 2292.861 1093.352 2279.167 C1094.948 2277.069 1096.563 2274.987 1098.188 2272.91 C1106.987 2261.624 1115.04 2249.889 1123 2238 C1123.928 2236.621 1124.857 2235.242 1125.785 2233.863 C1151.806 2195.13 1175.583 2154.911 1198 2114 C1198.572 2112.957 1199.144 2111.914 1199.733 2110.839 C1231.924 2051.954 1261.163 1991.542 1283 1928 C1283.226 1927.343 1283.453 1926.686 1283.686 1926.01 C1314.209 1837.321 1336.219 1745.736 1360.971 1488.176 C1360.99 1486.728 1361.011 1485.28 1361.033 1483.831 C1362.628 1379.584 1351.776 1274.679 1285.73 1018.13 C1285.006 1016.018 1284.287 1013.905 1283.569 1011.792 C1258.336 937.656 1225.668 864.615 1186.559 796.724 C1184.988 793.979 1183.441 791.221 1181.902 788.457 C1161.842 752.483 1139.537 717.79 1116 684 C1115.534 683.331 1115.068 682.662 1114.588 681.972 C1103.021 665.39 1091.005 649.144 1078.652 633.14 C1077.532 631.69 1076.414 630.238 1075.297 628.786 C1064.493 614.739 1053.32 601.025 1041.831 587.532 C1039.003 584.207 1036.239 580.836 1033.5 577.438 C1029.373 572.364 1024.999 567.563 1020.555 562.77 C1018.499 560.541 1016.484 558.292 1014.5 556 C1010.251 551.103 1005.844 546.351 1001.453 541.582 C1000.006 540.007 998.567 538.426 997.129 536.844 C992.507 531.763 987.831 526.776 982.929 521.962 C981.229 520.233 979.665 518.467 978.105 516.613 C973.134 510.895 967.74 505.591 962.376 500.245 C960.566 498.441 958.762 496.632 956.959 494.822 C951.659 489.52 946.359 484.294 940.648 479.43 C938.129 477.244 935.83 474.886 933.5 472.5 C929.868 468.819 926.16 465.3 922.227 461.941 C919.26 459.355 916.384 456.677 913.5 454 C908.734 449.585 903.932 445.231 899 441 C898.515 440.583 898.03 440.166 897.53 439.737 C894.598 437.218 891.664 434.703 888.727 432.191 C886.258 430.08 883.795 427.962 881.336 425.84 C875.547 420.848 869.736 415.912 863.734 411.176 C861.605 409.481 859.493 407.77 857.391 406.043 C849.421 399.501 841.337 393.172 833.059 387.027 C829.592 384.453 826.165 381.831 822.745 379.196 C813.307 371.925 803.707 364.906 794 358 C793.271 357.479 792.542 356.958 791.791 356.422 C739.2 318.916 683.82 285.551 626.477 255.852 C623.144 254.123 619.824 252.375 616.523 250.586 C542.269 210.447 460.227 182.8 149.809 105.71 C34.613 102.807 34.613 102.807 11 80 C10.176 79.234 10.176 79.234 9.336 78.453 C-0.153 68.637 -0.154 55.07 -0.098 42.285 C-0.096 40.469 -0.096 40.469 -0.093 38.616 C-0.088 34.765 -0.075 30.914 -0.062 27.062 C-0.057 24.445 -0.053 21.827 -0.049 19.209 C-0.038 12.806 -0.021 6.403 0 0 Z " fill="#137CC0" transform="translate(1035,6)"/>
<path d="M0 0 C0.927 0.001 1.855 0.002 2.81 0.003 C46.506 0.098 91.652 5.675 131.688 24.188 C132.329 24.483 132.971 24.779 133.633 25.083 C143.393 29.785 152.103 36.121 160.625 42.75 C162.448 44.154 164.273 45.556 166.098 46.957 C167.012 47.659 167.926 48.361 168.868 49.084 C173.233 52.414 177.642 55.682 182.062 58.938 C182.837 59.509 183.611 60.081 184.408 60.67 C185.835 61.719 187.266 62.763 188.703 63.799 C189.928 64.684 191.145 65.583 192.348 66.498 C195.139 68.666 195.139 68.666 198.509 68.937 C200.912 68.086 202.987 67.002 205.203 65.738 C206.104 65.227 207.006 64.716 207.934 64.189 C208.905 63.632 209.875 63.074 210.875 62.5 C211.891 61.921 212.906 61.343 213.953 60.746 C221.243 56.582 228.5 52.36 235.75 48.125 C236.75 47.542 237.75 46.96 238.78 46.36 C243.523 43.595 248.254 40.814 252.961 37.988 C294.824 13.088 345.626 1.201 394.188 0.984 C395.78 0.974 395.78 0.974 397.405 0.963 C400.812 0.946 404.218 0.939 407.625 0.938 C409.372 0.936 409.372 0.936 411.154 0.935 C428.494 0.951 445.48 1.357 462.625 4.188 C463.696 4.359 464.768 4.531 465.872 4.708 C520.429 13.687 576.688 37.737 610.438 83.625 C648.431 136.844 654.432 205.088 657.812 268.562 C657.868 269.588 657.868 269.588 657.924 270.634 C663.069 368.685 659.625 467.001 659.625 565.188 C355.695 565.188 51.765 565.188 -261.375 565.188 C-261.375 154.476 -261.375 154.476 -201.375 80.188 C-200.888 79.579 -200.4 78.971 -199.898 78.344 C-178.846 52.275 -149.84 30.903 -118.375 19.188 C-117.528 18.87 -116.682 18.552 -115.81 18.225 C-78.791 4.576 -39.269 -0.051 0 0 Z M-44.375 108.188 C-45.219 108.376 -46.064 108.564 -46.934 108.757 C-72.373 114.689 -93.326 126.753 -111.938 144.806 C-113.228 146.046 -114.548 147.254 -115.871 148.457 C-139.415 170.451 -142.998 203.696 -144.375 234.188 C-144.415 235.045 -144.456 235.902 -144.497 236.785 C-145.559 260.206 -145.508 283.618 -145.476 307.057 C-145.47 312.089 -145.47 317.12 -145.47 322.152 C-145.464 336.768 -145.45 351.384 -145.438 366 C-145.417 398.732 -145.396 431.464 -145.375 465.188 C-48.025 465.188 49.325 465.188 149.625 465.188 C162.475 298.771 162.475 298.771 98.512 136.066 C78.361 117.168 50.424 109.312 23.625 106.188 C22.837 106.093 22.049 105.999 21.237 105.902 C-0.031 103.652 -23.465 103.497 -44.375 108.188 Z M291.625 138.188 C290.785 138.916 289.944 139.644 289.078 140.395 C265.487 162.363 266.778 200.581 265.71 230.332 C265.18 248.158 265.381 266.013 265.422 283.845 C265.434 289.618 265.434 295.391 265.436 301.164 C265.446 317.922 265.474 334.68 265.5 351.438 C265.541 388.975 265.582 426.512 265.625 465.188 C357.365 465.188 449.105 465.188 543.625 465.188 C543.646 430.95 543.666 396.713 543.688 361.438 C543.701 345.296 543.701 345.296 543.715 328.829 C543.718 319.078 543.718 319.078 543.72 309.327 C543.721 305.025 543.725 300.724 543.731 296.423 C546.982 232.156 546.982 232.156 531.625 171.188 C531.169 170.304 530.712 169.421 530.242 168.512 C513.312 139.118 476.7 120.808 445.247 112.133 C394.531 98.706 332.788 102.486 291.625 138.188 Z " fill="#000000" transform="translate(261.375,2584.8125)"/>
<path d="M0 0 C3.068 -0.006 6.136 -0.013 9.204 -0.02 C24.132 -0.054 39.06 -0.07 53.988 -0.078 C57.654 -0.08 61.319 -0.083 64.985 -0.086 C151.214 -0.15 237.426 0.588 364.772 2.17 C365.666 2.182 366.56 2.193 367.482 2.205 C408.428 2.73 449.374 3.277 490.32 3.841 C508.676 4.093 527.032 4.333 545.389 4.55 C547.296 4.572 549.203 4.595 551.109 4.618 C561.109 4.737 561.109 4.737 571.108 4.848 C578.917 4.932 586.725 5.038 594.532 5.179 C597.855 5.227 601.176 5.247 604.499 5.258 C607.267 5.272 610.033 5.312 612.8 5.357 C614.723 5.38 616.646 5.374 618.569 5.366 C625.185 5.499 629.419 5.993 634.309 10.647 C636.608 13.354 638.421 16.199 640.272 19.233 C641.405 20.574 642.568 21.891 643.772 23.17 C645.854 25.571 647.916 27.988 649.975 30.408 C655.8 37.246 661.717 43.966 667.815 50.561 C670.442 53.418 673.001 56.326 675.545 59.256 C681.315 65.861 687.254 72.316 693.187 78.773 C696.047 81.888 698.887 85.021 701.709 88.17 C704.702 91.506 707.721 94.815 710.769 98.1 C711.811 99.228 712.846 100.362 713.874 101.502 C716.103 103.963 718.261 106.224 720.815 108.358 C724.447 111.547 726.138 113.912 726.633 118.811 C726.624 120.297 726.596 121.782 726.552 123.267 C726.534 124.551 726.534 124.551 726.514 125.861 C726.457 128.986 726.367 132.109 726.272 135.233 C726.235 136.479 726.199 137.724 726.162 139.008 C725.865 149.011 725.499 159.011 725.126 169.011 C724.961 173.459 724.801 177.907 724.64 182.355 C724.299 191.783 723.954 201.21 723.607 210.637 C723.027 226.425 722.451 242.212 721.879 257.999 C721.78 260.74 721.68 263.48 721.58 266.22 C720.589 293.542 719.691 320.865 718.906 348.193 C715.233 475.606 715.233 475.606 678.932 510.705 C676.497 512.946 674.012 515.123 671.506 517.283 C668.893 519.563 666.332 521.895 663.772 524.233 C660.674 527.058 657.568 529.865 654.397 532.608 C650.247 536.213 646.224 539.951 642.192 543.687 C638.099 547.478 633.966 551.221 629.811 554.944 C625.921 558.45 622.076 562.004 618.229 565.557 C617.253 566.44 616.277 567.323 615.272 568.233 C614.869 568.744 614.467 569.255 614.052 569.781 C610.772 573.474 607.776 574.594 602.848 574.911 C598.96 575.026 595.078 575.002 591.188 574.961 C589.415 574.964 587.641 574.97 585.867 574.979 C580.991 574.994 576.115 574.972 571.238 574.944 C565.97 574.92 560.702 574.931 555.434 574.937 C545.07 574.945 534.706 574.92 524.341 574.886 C512.119 574.846 499.897 574.841 487.674 574.837 C465.667 574.828 443.66 574.793 421.654 574.74 C400.671 574.69 379.689 574.654 358.706 574.638 C357.435 574.637 356.163 574.636 354.853 574.635 C349.729 574.631 344.605 574.627 339.481 574.623 C247.479 574.552 155.477 574.346 63.476 573.783 C61.018 573.768 58.561 573.753 56.103 573.739 C-37.713 573.187 -37.713 573.187 -81.541 571.358 C-83.058 571.296 -83.058 571.296 -84.606 571.232 C-160.286 568.087 -160.286 568.087 -178.728 558.233 C-179.886 557.618 -179.886 557.618 -181.068 556.991 C-188.688 551.74 -190.445 541.713 -192.728 533.233 C-193.004 532.221 -193.004 532.221 -193.286 531.189 C-194.841 524.307 -194.932 514.478 -191.881 507.994 C-182.623 493.841 -165.264 489.795 -149.728 486.233 C-104.697 476.871 -56.964 476.322 -11.129 475.435 C-9.933 475.412 -9.933 475.412 -8.713 475.388 C-6.967 475.354 -5.221 475.32 -3.475 475.287 C-0.699 475.232 2.078 475.175 4.855 475.117 C45.399 474.29 85.946 474.091 126.498 473.951 C127.898 473.947 129.298 473.942 130.697 473.937 C152.43 473.862 174.164 473.797 195.897 473.733 C219.014 473.665 242.131 473.594 265.248 473.514 C265.943 473.512 266.637 473.509 267.353 473.507 C311.33 473.354 355.302 473.093 399.272 472.233 C400.26 472.214 401.249 472.195 402.268 472.175 C413.333 471.96 424.396 471.692 435.459 471.358 C436.877 471.316 438.296 471.274 439.714 471.232 C518.26 474.968 518.26 474.968 588.799 452.733 C607.526 427.232 604.049 378.968 605.346 348.561 C605.411 347.033 605.411 347.033 605.478 345.475 C606.522 320.352 606.54 295.239 606.467 270.099 C606.456 265.319 606.457 260.54 606.457 255.76 C610.981 189.031 610.981 189.031 590.959 128.358 C590.072 127.656 589.185 126.955 588.272 126.233 C587.44 125.552 587.44 125.552 586.592 124.858 C530.5 82.953 398.017 100.561 330.517 99.435 C329.124 99.412 329.124 99.412 327.703 99.388 C325.653 99.354 323.603 99.32 321.553 99.287 C319.331 99.25 317.109 99.213 314.887 99.176 C271.147 98.445 227.408 98.112 183.662 97.951 C181.725 97.944 181.725 97.944 179.749 97.937 C157.626 97.855 135.504 97.784 113.381 97.713 C109.968 97.702 106.555 97.691 103.142 97.68 C102.468 97.678 101.794 97.676 101.099 97.674 C89.674 97.637 78.25 97.597 66.825 97.555 C60.507 97.532 54.19 97.51 47.872 97.493 C21.727 97.421 -4.412 97.233 -30.553 96.77 C-31.685 96.75 -32.817 96.73 -33.983 96.71 C-167.275 94.344 -167.275 94.344 -184.365 77.975 C-191.519 68.832 -191.603 57.289 -190.728 46.233 C-189.123 35.1 -184.984 22.441 -175.666 15.432 C-154.025 2.037 -122.003 3.445 -97.291 2.108 C-96.594 2.069 -95.897 2.03 -95.179 1.991 C-63.49 0.277 -31.727 0.057 0 0 Z " fill="#000000" transform="translate(197.72827291488647,1721.7672967910767)"/>
<path d="M0 0 C18.755 13.179 24.077 35.385 28.004 56.82 C29.688 66.604 30.687 76.438 31.566 86.32 C31.627 86.996 31.688 87.672 31.751 88.368 C33.987 113.687 34.019 138.999 33.98 164.394 C33.974 169.293 33.973 174.192 33.972 179.092 C33.969 188.331 33.961 197.57 33.951 206.809 C33.94 217.344 33.934 227.879 33.929 238.414 C33.919 260.049 33.901 281.685 33.879 303.32 C34.815 303.624 35.751 303.928 36.715 304.241 C39.751 305.277 42.357 306.515 45.168 308.051 C46.682 308.873 46.682 308.873 48.227 309.711 C49.849 310.6 49.849 310.6 51.504 311.508 C53.249 312.456 54.994 313.404 56.739 314.352 C57.95 315.01 59.161 315.669 60.372 316.328 C66.857 319.858 73.367 323.34 79.879 326.82 C94.297 334.536 108.693 342.292 123.088 350.05 C126.31 351.786 129.532 353.522 132.754 355.258 C133.82 355.832 134.886 356.406 135.984 356.998 C143.393 360.987 150.808 364.962 158.226 368.932 C167.58 373.937 176.926 378.955 186.254 384.008 C187.242 384.543 188.23 385.077 189.247 385.628 C193.851 388.124 198.448 390.63 203.031 393.164 C253.183 420.85 307.411 450.658 363.379 464.383 C364.21 464.587 365.04 464.792 365.896 465.002 C374.845 467.027 382.583 466.531 391.441 464.32 C392.351 464.096 393.26 463.872 394.197 463.64 C426.14 455.501 456.937 441.919 486.879 428.32 C488.373 427.645 488.373 427.645 489.897 426.957 C516.354 414.983 542.545 402.356 568.197 388.74 C572.913 386.244 577.647 383.785 582.379 381.32 C584.296 380.32 586.212 379.32 588.129 378.32 C645.629 348.32 645.629 348.32 648.505 346.82 C650.418 345.821 652.332 344.823 654.245 343.825 C659.086 341.299 663.927 338.774 668.77 336.25 C677.937 331.472 687.101 326.689 696.254 321.883 C696.996 321.494 697.738 321.105 698.503 320.705 C699.877 319.982 701.246 319.25 702.608 318.505 C704.879 317.32 704.879 317.32 707.21 316.338 C711.865 314.287 711.865 314.287 714.764 310.33 C715.17 307.817 715.284 305.423 715.312 302.877 C715.357 301.925 715.403 300.974 715.449 299.994 C715.59 296.821 715.668 293.651 715.746 290.477 C715.833 288.227 715.924 285.977 716.019 283.728 C716.263 277.681 716.454 271.633 716.635 265.584 C716.833 259.303 717.082 253.025 717.326 246.746 C717.758 235.442 718.152 224.137 718.526 212.831 C718.897 201.652 719.309 190.474 719.738 179.297 C719.771 178.434 719.804 177.571 719.839 176.682 C719.998 172.524 720.159 168.367 720.32 164.209 C720.443 161.039 720.564 157.869 720.683 154.699 C725.083 38.003 725.083 38.003 745.691 18.07 C753.816 12.264 762.514 10.659 772.316 10.883 C773.35 10.896 774.383 10.909 775.448 10.923 C790.342 11.265 808.29 11.813 819.879 22.32 C829.329 35.798 830.579 52.972 831.887 68.914 C832.012 70.433 832.012 70.433 832.139 71.983 C833.234 86.019 833.775 100.086 834.348 114.15 C834.443 116.476 834.539 118.801 834.637 121.127 C842.665 313.352 842.665 313.352 789.879 371.32 C779.874 382.018 769.596 392.331 757.734 400.961 C755.659 402.481 753.615 404.038 751.57 405.598 C703.788 441.778 648.301 468.152 595.047 495.218 C593.091 496.212 591.137 497.208 589.182 498.204 C574.47 505.692 559.584 512.761 544.572 519.627 C542.083 520.766 539.598 521.912 537.115 523.064 C489.213 545.282 435.988 568.053 382.445 568.559 C381.578 568.568 380.711 568.578 379.817 568.588 C360.129 568.765 341.224 568.378 321.879 564.32 C320.388 564.023 320.388 564.023 318.867 563.719 C275.948 554.995 236.043 536.301 196.879 517.32 C195.209 516.511 195.209 516.511 193.505 515.686 C182.575 510.363 171.839 504.738 161.194 498.868 C154.661 495.269 148.069 491.802 141.441 488.383 C132.703 483.863 124.115 479.123 115.572 474.244 C108.749 470.354 101.864 466.594 94.941 462.883 C82.746 456.319 70.789 449.387 58.879 442.32 C57.65 441.594 56.422 440.867 55.193 440.141 C40.165 431.251 25.214 422.307 10.879 412.32 C10.262 411.893 9.645 411.467 9.01 411.027 C-4.334 401.765 -16.99 391.876 -28.736 380.643 C-29.934 379.499 -31.146 378.369 -32.359 377.242 C-70.387 340.967 -75.012 286.792 -78.121 237.32 C-78.189 236.242 -78.257 235.164 -78.327 234.053 C-80.267 202.778 -81.421 171.537 -81.49 140.201 C-81.496 138.059 -81.507 135.917 -81.52 133.775 C-81.599 118.156 -81.117 102.689 -79.742 87.129 C-79.65 86.078 -79.65 86.078 -79.557 85.007 C-77.188 58.486 -72.614 28.35 -52.121 9.32 C-39.316 -1.106 -15.638 -8.753 0 0 Z " fill="#000000" transform="translate(82.12109375,2.6796875)"/>
<path d="M0 0 C0.873 0.005 1.746 0.01 2.646 0.015 C14.142 0.221 25.486 1.538 34.012 9.922 C63.711 44.932 53.838 131.907 54.375 175.312 C54.391 176.589 54.391 176.589 54.408 177.892 C55.296 250.229 53.465 322.734 0.312 377.625 C-3.522 381.348 -7.635 384.707 -11.805 388.047 C-13.579 389.472 -15.336 390.917 -17.07 392.391 C-45.312 416.294 -79.013 434.282 -111.501 451.64 C-114.669 453.336 -117.829 455.046 -120.988 456.758 C-166.387 481.311 -212.495 505.259 -259.625 526.312 C-260.885 526.88 -262.145 527.447 -263.405 528.015 C-307.826 548.007 -354.023 566.812 -403.438 566.688 C-404.716 566.686 -404.716 566.686 -406.021 566.685 C-448.842 566.54 -488.843 552.506 -527.625 535.312 C-528.242 535.039 -528.86 534.766 -529.495 534.484 C-549.993 525.4 -570.215 515.786 -590.339 505.905 C-595.287 503.476 -600.241 501.059 -605.196 498.642 C-653.108 475.268 -653.108 475.268 -674.223 464.109 C-676.653 462.826 -679.085 461.547 -681.52 460.273 C-698.219 451.538 -714.737 442.593 -730.921 432.924 C-733.566 431.347 -736.221 429.789 -738.879 428.234 C-760.183 415.71 -779.965 401.504 -798.625 385.312 C-800.008 384.118 -800.008 384.118 -801.418 382.898 C-806.593 378.342 -811.273 373.657 -815.625 368.312 C-816.028 367.827 -816.432 367.341 -816.847 366.841 C-862.079 312.206 -860.48 237.707 -863.529 170.409 C-863.619 168.452 -863.712 166.495 -863.805 164.538 C-869.446 43.578 -869.446 43.578 -846.594 14.75 C-838.429 6.01 -828.837 1.811 -817.02 1.094 C-801.727 0.608 -780.594 0.705 -768.75 11.562 C-754.82 27.092 -754.831 54.563 -753.204 74.192 C-753.14 74.961 -753.076 75.729 -753.01 76.521 C-751.359 96.484 -750.225 116.476 -749.1 136.474 C-748.802 141.743 -748.5 147.012 -748.199 152.281 C-747.696 161.093 -747.196 169.905 -746.699 178.718 C-746.127 188.866 -745.548 199.014 -744.966 209.161 C-744.401 219.012 -743.841 228.864 -743.282 238.715 C-743.046 242.873 -742.809 247.032 -742.57 251.19 C-742.29 256.077 -742.014 260.964 -741.741 265.852 C-741.64 267.633 -741.539 269.414 -741.436 271.195 C-740.855 281.25 -740.483 291.236 -740.625 301.312 C-739.855 301.614 -739.085 301.915 -738.292 302.226 C-735.417 303.397 -732.787 304.79 -730.074 306.297 C-728.996 306.895 -727.917 307.493 -726.806 308.11 C-725.641 308.761 -724.477 309.411 -723.312 310.062 C-722.716 310.394 -722.12 310.726 -721.506 311.068 C-712.09 316.312 -702.772 321.709 -693.484 327.176 C-685.555 331.822 -677.508 336.217 -669.411 340.561 C-662.082 344.501 -654.84 348.572 -647.628 352.723 C-639.757 357.251 -631.836 361.686 -623.905 366.108 C-619.093 368.794 -614.291 371.492 -609.531 374.27 C-594.256 383.176 -578.563 391.212 -562.799 399.208 C-560.652 400.299 -558.508 401.394 -556.365 402.492 C-467.464 449.921 -467.464 449.921 -370.625 452.312 C-369.797 452.093 -368.969 451.874 -368.116 451.648 C-331.956 441.848 -297.344 426.421 -263.625 410.312 C-262.956 409.993 -262.288 409.674 -261.599 409.346 C-244.775 401.313 -228.03 393.176 -211.625 384.312 C-207.727 382.216 -203.828 380.122 -199.928 378.03 C-198.727 377.386 -197.527 376.741 -196.326 376.096 C-186.382 370.753 -176.375 365.54 -166.341 360.368 C-159.467 356.814 -152.651 353.174 -145.875 349.438 C-137.04 344.566 -128.101 339.917 -119.125 335.312 C-109.288 330.267 -99.506 325.147 -89.828 319.8 C-83.42 316.27 -76.964 312.84 -70.477 309.457 C-69.044 308.709 -69.044 308.709 -67.583 307.945 C-65.264 306.733 -62.945 305.522 -60.625 304.312 C-60.622 303.449 -60.618 302.585 -60.615 301.696 C-60.533 280.503 -60.441 259.31 -60.337 238.117 C-60.288 227.868 -60.241 217.619 -60.203 207.369 C-60.17 198.417 -60.13 189.464 -60.082 180.511 C-60.057 175.789 -60.035 171.066 -60.022 166.343 C-59.965 147.728 -59.735 129.162 -58.681 110.573 C-58.64 109.84 -58.598 109.107 -58.555 108.352 C-54.117 31.845 -54.117 31.845 -30.016 9.219 C-21.135 2.137 -11.118 -0.074 0 0 Z " fill="#000000" transform="translate(864.625,866.6875)"/>
<path d="M0 0 C4.737 4.316 6.414 8.608 7 15 C7.056 17.716 7.079 20.418 7.062 23.133 C7.06 23.919 7.057 24.705 7.054 25.515 C7.015 33.583 6.917 41.649 6.738 49.714 C6.704 51.325 6.676 52.936 6.654 54.546 C6.174 88.225 6.174 88.225 -5.438 99.688 C-20.57 111.782 -42.974 113.994 -61.37 117.761 C-94.186 124.488 -126.191 133.532 -158 144 C-158.911 144.299 -159.821 144.598 -160.759 144.906 C-216.254 163.159 -270.566 184.401 -324 208 C-325.171 208.516 -326.342 209.032 -327.548 209.563 C-347.519 218.383 -367.293 227.606 -387 237 C-387.698 237.333 -388.396 237.665 -389.116 238.008 C-404.291 245.247 -419.417 252.546 -434.225 260.517 C-437.614 262.328 -441.018 264.113 -444.422 265.898 C-459.906 274.033 -475.195 282.394 -490.224 291.35 C-492.983 292.99 -495.751 294.613 -498.523 296.23 C-512.186 304.219 -525.628 312.535 -539 321 C-540.052 321.665 -541.104 322.329 -542.188 323.014 C-555.247 331.278 -568.165 339.703 -580.859 348.518 C-582.931 349.952 -585.011 351.375 -587.094 352.793 C-595.737 358.683 -604.245 364.743 -612.707 370.891 C-615.297 372.772 -617.895 374.641 -620.512 376.484 C-629.452 382.784 -638.139 389.395 -646.82 396.047 C-650.625 398.96 -654.455 401.834 -658.307 404.685 C-666.832 411.002 -675.011 417.693 -683.164 424.48 C-685.546 426.452 -687.956 428.387 -690.375 430.312 C-699.2 437.34 -707.859 444.541 -716.402 451.906 C-718.738 453.919 -721.084 455.919 -723.441 457.906 C-730.537 463.902 -737.406 470.089 -744.144 476.486 C-747.568 479.735 -751.031 482.92 -754.566 486.047 C-760.853 491.684 -766.801 497.651 -772.76 503.63 C-774.691 505.566 -776.627 507.497 -778.564 509.428 C-784.589 515.449 -790.511 521.479 -796 528 C-796.936 529.061 -797.875 530.119 -798.816 531.176 C-815.567 550.204 -828.789 568.839 -835.478 593.452 C-837.625 601.194 -840.163 607.496 -845 614 C-845.797 615.108 -845.797 615.108 -846.609 616.238 C-852.693 623.93 -861.254 629.585 -871 631 C-877.016 631.565 -881.677 631.173 -887 628 C-903.672 610.94 -898.324 572.457 -898.261 550.264 C-898.249 546.242 -898.256 542.22 -898.268 538.197 C-898.375 494.015 -895.777 457.782 -863.125 424.875 C-857.854 419.626 -852.49 414.734 -846.641 410.137 C-843.644 407.712 -840.818 405.127 -838 402.5 C-833.421 398.244 -828.707 394.227 -823.836 390.305 C-821.298 388.242 -818.801 386.141 -816.315 384.016 C-809.66 378.328 -802.85 372.871 -795.934 367.504 C-793.878 365.905 -791.829 364.297 -789.781 362.688 C-779.011 354.24 -768.067 346.055 -757 338 C-756.253 337.455 -755.505 336.91 -754.735 336.348 C-736.006 322.702 -716.963 309.516 -697.75 296.562 C-696.813 295.93 -695.875 295.298 -694.909 294.646 C-681.649 285.708 -668.316 276.956 -654.659 268.632 C-651.877 266.924 -649.115 265.189 -646.355 263.445 C-607.12 238.659 -566.714 215.646 -525.902 193.57 C-523.927 192.502 -521.953 191.431 -519.98 190.359 C-476.745 166.884 -432.755 144.729 -387.846 124.628 C-383.467 122.666 -379.104 120.674 -374.746 118.664 C-294.759 81.888 -211.802 54.004 -127.774 28.161 C-124.009 27.003 -120.245 25.842 -116.48 24.681 C-15.34 -6.49 -15.34 -6.49 0 0 Z " fill="#33373A" transform="translate(1933,2188)"/>
<path d="M0 0 C8.512 10.304 5.218 26.694 4.128 39.107 C0.389 78.213 0.389 78.213 -15 92 C-27.38 100.504 -41.765 105.851 -55.938 110.562 C-57.187 110.979 -58.436 111.395 -59.724 111.824 C-71.786 115.781 -84.009 119.148 -96.25 122.5 C-97.776 122.918 -97.776 122.918 -99.333 123.344 C-103.397 124.457 -107.462 125.568 -111.527 126.678 C-155.937 138.82 -199.344 153.667 -242 171 C-242.705 171.286 -243.41 171.572 -244.136 171.867 C-304.964 196.604 -365.499 224.329 -422.93 256.215 C-428.376 259.232 -433.904 262.083 -439.438 264.938 C-450.121 270.467 -460.581 276.347 -471.026 282.312 C-475.134 284.644 -479.263 286.938 -483.391 289.235 C-496.054 296.284 -508.563 303.561 -521 311 C-523.064 312.23 -525.128 313.461 -527.191 314.691 C-548.01 327.124 -568.584 339.917 -589 353 C-589.736 353.471 -590.473 353.942 -591.231 354.428 C-609.717 366.268 -627.976 378.469 -646 391 C-647.143 391.792 -647.143 391.792 -648.309 392.599 C-660.702 401.185 -672.912 409.99 -685 419 C-685.587 419.437 -686.175 419.874 -686.78 420.324 C-694.586 426.13 -702.312 432.039 -710 438 C-710.57 438.441 -711.14 438.882 -711.728 439.336 C-719.273 445.182 -726.654 451.178 -733.91 457.379 C-736.776 459.823 -739.694 462.197 -742.625 464.562 C-747.382 468.433 -751.922 472.5 -756.434 476.652 C-758.676 478.703 -760.948 480.705 -763.25 482.688 C-766.398 485.42 -769.329 488.306 -772.246 491.281 C-773.953 492.954 -775.726 494.471 -777.562 496 C-784.245 501.777 -790.084 508.458 -796 515 C-796.537 515.593 -797.075 516.185 -797.628 516.796 C-814.266 535.277 -829.506 555.996 -831 581.5 C-831.617 592.032 -832.578 603.05 -840.754 610.625 C-848.145 616.642 -855.698 617.348 -864.938 617.312 C-865.78 617.329 -866.622 617.345 -867.49 617.361 C-874.286 617.367 -880.669 616.431 -886.27 612.344 C-899.43 596.617 -898.151 572.915 -898.168 553.52 C-898.171 552.173 -898.175 550.826 -898.178 549.479 C-898.184 546.676 -898.186 543.874 -898.185 541.071 C-898.185 538.241 -898.192 535.411 -898.206 532.581 C-898.386 494.57 -895.469 458.626 -869 429 C-868.327 428.219 -867.654 427.438 -866.961 426.633 C-857.638 415.984 -847.645 405.787 -836.52 397.023 C-834.032 395.026 -831.709 392.923 -829.375 390.75 C-823.721 385.604 -817.65 381.057 -811.555 376.453 C-807.79 373.61 -804.066 370.72 -800.354 367.809 C-791.165 360.608 -781.82 353.643 -772.396 346.754 C-769.197 344.412 -766.01 342.055 -762.822 339.699 C-753.673 332.94 -744.47 326.258 -735.238 319.613 C-732.979 317.985 -730.724 316.353 -728.469 314.719 C-711.54 302.455 -694.467 290.489 -677 279 C-676.273 278.522 -675.547 278.044 -674.798 277.552 C-669.889 274.331 -664.953 271.153 -660 268 C-659.158 267.464 -658.315 266.927 -657.447 266.375 C-633.056 250.891 -608.173 236.175 -583 222 C-582.036 221.456 -581.072 220.911 -580.079 220.351 C-565.856 212.323 -551.559 204.442 -537.173 196.708 C-533.817 194.902 -530.465 193.088 -527.113 191.273 C-514.986 184.721 -502.801 178.318 -490.443 172.207 C-484.43 169.231 -478.479 166.163 -472.562 163 C-463.446 158.148 -454.154 153.692 -444.828 149.258 C-440.096 147.008 -435.379 144.73 -430.672 142.43 C-412.634 133.621 -394.458 125.169 -376.14 116.96 C-373.987 115.994 -371.836 115.027 -369.685 114.059 C-307.271 85.995 -243.843 59.943 -179 38 C-177.611 37.53 -177.611 37.53 -176.194 37.05 C-23.022 -14.695 -23.022 -14.695 0 0 Z " fill="#BBBDBF" transform="translate(1933,2516)"/>
<path d="M0 0 C7.283 6.455 9.306 15.113 9.878 24.542 C10.081 29.52 10.122 34.496 10.121 39.478 C10.125 42.103 10.161 44.725 10.199 47.35 C10.287 60.385 9.978 75.34 0.773 85.555 C-16.649 101.767 -44.082 106.456 -66.518 112.081 C-155.424 134.379 -241.113 169.419 -389.152 236.5 C-393.325 238.514 -397.506 240.513 -401.691 242.5 C-413.537 248.132 -425.235 253.95 -436.8 260.138 C-439.433 261.534 -442.078 262.904 -444.727 264.27 C-457.392 270.801 -469.865 277.609 -482.224 284.702 C-485.392 286.519 -488.565 288.328 -491.738 290.137 C-505.422 297.96 -518.913 306.037 -532.25 314.438 C-533.892 315.468 -535.534 316.497 -537.176 317.527 C-567.093 336.327 -596.468 355.942 -625.25 376.438 C-626.321 377.199 -626.321 377.199 -627.413 377.976 C-639.117 386.313 -650.567 394.959 -661.972 403.699 C-664.861 405.904 -667.772 408.08 -670.688 410.25 C-683.952 420.17 -696.795 430.619 -709.41 441.349 C-712.861 444.28 -716.352 447.155 -719.875 450 C-724.638 453.876 -729.184 457.95 -733.703 462.105 C-735.839 464.062 -737.998 465.979 -740.188 467.875 C-747.839 474.537 -755.298 481.389 -762.406 488.629 C-764.205 490.393 -766.07 492.007 -768 493.625 C-773.339 498.223 -777.96 503.507 -782.681 508.72 C-784.205 510.388 -785.748 512.035 -787.301 513.676 C-806.285 533.781 -824.844 556.133 -827.25 584.438 C-828.234 595.186 -829.322 605.096 -837.5 612.875 C-844.736 618.233 -852.546 618.921 -861.312 618.812 C-862.254 618.824 -863.196 618.836 -864.166 618.848 C-871.67 618.816 -877.129 617.478 -883.5 613.312 C-902.586 593.359 -895.027 545.248 -895.317 519.472 C-895.404 511.908 -895.527 504.347 -895.738 496.784 C-895.924 490.14 -896.041 483.497 -896.078 476.85 C-896.1 473.346 -896.154 469.851 -896.289 466.35 C-897.075 445.26 -897.075 445.26 -892.38 438.907 C-887.925 434.57 -882.93 431.46 -877.436 428.603 C-874.703 427.146 -872.301 425.379 -869.871 423.465 C-862.299 417.871 -854.705 412.31 -847.062 406.812 C-840.772 402.286 -834.544 397.688 -828.354 393.025 C-817.02 384.489 -805.58 376.098 -794.062 367.812 C-787.771 363.286 -781.541 358.687 -775.352 354.022 C-767.838 348.363 -760.257 342.796 -752.678 337.224 C-750.267 335.45 -747.86 333.673 -745.453 331.895 C-734.771 324.003 -724.056 316.159 -713.25 308.438 C-712.524 307.918 -711.798 307.399 -711.05 306.864 C-696.335 296.371 -681.278 286.388 -666.219 276.4 C-662.9 274.199 -659.584 271.994 -656.274 269.781 C-649.105 264.986 -641.912 260.24 -634.625 255.625 C-633.69 255.032 -632.756 254.44 -631.792 253.829 C-628.947 252.028 -626.099 250.232 -623.25 248.438 C-622.418 247.913 -621.586 247.389 -620.729 246.849 C-604.705 236.778 -588.418 227.148 -572.116 217.538 C-570.379 216.513 -568.642 215.488 -566.906 214.462 C-535.062 195.67 -502.521 178.14 -469.659 161.201 C-466.219 159.421 -462.786 157.629 -459.355 155.832 C-446.189 148.945 -432.952 142.285 -419.502 135.97 C-416.557 134.582 -413.617 133.182 -410.678 131.778 C-387.755 120.824 -364.59 110.47 -341.25 100.438 C-339.948 99.877 -339.948 99.877 -338.619 99.306 C-278.359 73.423 -216.732 51.314 -154.25 31.438 C-153.035 31.051 -151.82 30.664 -150.568 30.265 C-22.081 -10.616 -22.081 -10.616 0 0 Z " fill="#137CC0" transform="translate(1929.25,1824.5625)"/>
<path d="M0 0 C0.945 0.451 1.89 0.902 2.863 1.367 C29.958 15.233 57.686 46.351 68.158 75.07 C71.275 85.92 71.39 97.969 71.95 109.202 C72.06 111.378 72.178 113.553 72.299 115.729 C73.702 141.956 74.156 168.233 74.503 194.492 C74.541 197.411 74.583 200.33 74.628 203.248 C75.448 256.777 74.915 310.291 74.166 363.815 C74.051 372.056 73.941 380.296 73.832 388.536 C73.568 408.358 73.29 428.179 73 448 C72.984 449.102 72.984 449.102 72.967 450.226 C72.039 513.589 72.039 513.589 71.18 542.29 C71.1 544.98 71.023 547.67 70.95 550.361 C70.22 577.437 69.33 604.638 66.25 631.562 C66.168 632.294 66.087 633.025 66.002 633.778 C61.874 670.101 50.145 694.578 25 721 C24.235 721.808 24.235 721.808 23.455 722.632 C17.173 729.229 10.862 735.285 3 740 C2.135 740.521 1.27 741.042 0.379 741.578 C-18.591 751.997 -41.771 753.603 -62.938 755.125 C-63.987 755.201 -65.037 755.276 -66.119 755.354 C-96.859 757.339 -127.652 757.164 -158.44 757.167 C-162.352 757.168 -166.265 757.17 -170.178 757.173 C-183.239 757.181 -196.3 757.186 -209.362 757.185 C-210.06 757.185 -210.758 757.185 -211.478 757.185 C-212.177 757.185 -212.876 757.185 -213.597 757.185 C-224.138 757.185 -234.679 757.193 -245.22 757.206 C-488.214 757.504 -488.214 757.504 -513 743 C-513.875 740.812 -513.875 740.812 -514 739 C-506.379 732.687 -495.112 732.202 -485.625 731 C-484.646 730.875 -484.646 730.875 -483.646 730.748 C-406.757 721.119 -327.981 723.274 -250.627 722.83 C-245.151 722.798 -239.676 722.765 -234.201 722.732 C-231.83 722.717 -229.459 722.703 -227.087 722.689 C-225.501 722.679 -223.914 722.669 -222.327 722.659 C-213.741 722.607 -205.155 722.558 -196.569 722.521 C-167.142 722.392 -137.733 722.23 -108.324 721.051 C-107.296 721.01 -106.268 720.969 -105.209 720.927 C-54.057 720.149 -54.057 720.149 -8 701 C-6.942 700.217 -6.942 700.217 -5.863 699.418 C17.436 680.604 21.689 648.927 24.779 621.086 C27.098 599.169 28.193 577.137 29.125 555.125 C29.164 554.225 29.202 553.324 29.242 552.397 C30.827 514.623 31.229 476.801 31.707 439.001 C31.771 433.98 31.836 428.96 31.901 423.94 C32.064 411.383 32.224 398.826 32.383 386.269 C32.519 375.517 32.658 364.766 32.8 354.014 C32.947 342.812 33.091 331.609 33.234 320.407 C33.313 314.183 33.392 307.959 33.475 301.735 C33.81 276.405 34.058 251.078 34.062 225.746 C34.063 224.675 34.063 223.603 34.064 222.5 C37.434 131.722 37.434 131.722 1.336 52.113 C-24.253 28.963 -58.608 24.143 -91.75 21.312 C-92.451 21.252 -93.152 21.191 -93.874 21.128 C-122.251 18.712 -150.736 18.835 -179.192 18.77 C-186.117 18.754 -193.043 18.73 -199.969 18.705 C-218.421 18.639 -236.873 18.582 -255.326 18.533 C-489.99 17.913 -489.99 17.913 -513 4 C-513.668 1.398 -513.668 1.398 -514 -1 C-506.971 -4.151 -500.299 -5.971 -492.688 -7.062 C-491.576 -7.226 -490.465 -7.39 -489.32 -7.558 C-459.432 -11.725 -429.122 -12.806 -399 -14 C-398.312 -14.028 -397.623 -14.056 -396.914 -14.085 C-387.493 -14.466 -378.07 -14.733 -368.643 -14.941 C-366.805 -14.982 -364.968 -15.024 -363.13 -15.066 C-266.55 -17.293 -168.901 -18.967 0 0 Z " fill="#000000" transform="translate(1549,372)"/>
<path d="M0 0 C0.728 0.028 1.456 0.055 2.206 0.084 C113.623 4.32 113.623 4.32 153.688 12 C154.817 12.213 154.817 12.213 155.97 12.429 C162.379 13.787 168.091 15.688 172.348 20.844 C194.916 63.954 189.408 130.677 189.258 178.183 C189.25 180.866 189.245 183.549 189.242 186.232 C189.201 211.452 189.013 236.636 187.161 261.8 C186.994 264.082 186.834 266.364 186.675 268.646 C185.984 278.437 185.157 288.21 184.197 297.979 C184.01 299.894 183.831 301.81 183.651 303.727 C181.015 330.997 175.32 357.87 170.06 384.729 C169.879 385.654 169.698 386.579 169.511 387.532 C169.061 389.706 168.546 391.849 168 394 C126.515 394.023 85.029 394.041 43.544 394.051 C38.602 394.052 33.66 394.054 28.718 394.055 C27.243 394.055 27.243 394.055 25.737 394.056 C9.99 394.06 -5.757 394.068 -21.504 394.077 C-37.765 394.087 -54.027 394.092 -70.288 394.094 C-79.378 394.095 -88.468 394.098 -97.558 394.106 C-133.352 394.134 -169.139 394.067 -204.929 393.549 C-205.636 393.538 -206.343 393.528 -207.071 393.518 C-222.932 393.291 -238.789 392.979 -254.645 392.561 C-255.319 392.543 -255.994 392.526 -256.689 392.507 C-380.58 389.217 -380.58 389.217 -403 379 C-403 376.688 -403 376.688 -402 374 C-364.995 354.365 -301.598 362.052 -260.514 360.922 C-259.736 360.901 -258.957 360.879 -258.155 360.857 C-219.658 359.797 -181.171 359.734 -142.663 359.793 C-132.829 359.808 -122.995 359.81 -113.162 359.813 C-95.644 359.817 -78.127 359.83 -60.609 359.849 C-43.654 359.868 -26.699 359.882 -9.744 359.89 C-8.688 359.891 -7.632 359.891 -6.544 359.892 C-1.244 359.894 4.056 359.897 9.357 359.899 C52.904 359.92 96.452 359.955 140 360 C139.981 359.387 139.962 358.775 139.942 358.144 C138.811 321.734 137.683 285.325 136.56 248.915 C136.425 244.531 136.29 240.147 136.155 235.763 C136.128 234.89 136.101 234.018 136.073 233.118 C135.639 219.038 135.202 204.958 134.764 190.878 C134.313 176.401 133.866 161.925 133.421 147.448 C133.147 138.534 132.871 129.621 132.592 120.708 C132.4 114.573 132.211 108.438 132.024 102.304 C131.917 98.779 131.808 95.253 131.696 91.729 C131.162 74.813 130.878 57.924 131 41 C130.324 40.988 129.647 40.976 128.95 40.964 C88.538 40.251 48.126 39.533 7.715 38.809 C2.824 38.721 -2.067 38.634 -6.958 38.546 C-7.931 38.529 -8.904 38.512 -9.907 38.494 C-25.511 38.214 -41.114 37.938 -56.717 37.663 C-72.819 37.38 -88.921 37.093 -105.023 36.802 C-114.028 36.64 -123.034 36.479 -132.039 36.323 C-166.206 35.727 -200.368 35.079 -234.523 33.996 C-235.77 33.956 -237.017 33.917 -238.302 33.877 C-390.984 29.016 -390.984 29.016 -403 17 C-403 15.68 -403 14.36 -403 13 C-396.093 9.926 -389.529 8.053 -382.062 6.938 C-380.463 6.692 -380.463 6.692 -378.831 6.442 C-363.628 4.23 -348.318 3.067 -333 2 C-332.311 1.951 -331.622 1.903 -330.912 1.853 C-319.96 1.089 -309.002 0.569 -298.033 0.124 C-294.881 -0.005 -291.728 -0.141 -288.576 -0.278 C-206.103 -3.748 -123.033 -3.343 0 0 Z " fill="#000000" transform="translate(1438,1212)"/>
<path d="M0 0 C8.984 0.007 17.968 0.009 26.952 0.01 C42.954 0.012 58.956 0.018 74.958 0.028 C90.438 0.037 105.917 0.044 121.397 0.049 C122.362 0.049 123.328 0.049 124.322 0.049 C129.169 0.051 134.016 0.052 138.863 0.053 C178.628 0.063 218.393 0.082 258.158 0.104 C258.158 33.104 258.158 66.104 258.158 100.104 C212.613 100.126 167.067 100.144 121.521 100.155 C116.111 100.156 110.7 100.157 105.29 100.158 C103.674 100.159 103.674 100.159 102.026 100.159 C84.724 100.164 67.422 100.171 50.12 100.181 C32.288 100.19 14.456 100.196 -3.376 100.198 C-13.359 100.199 -23.341 100.202 -33.324 100.209 C-86.343 100.248 -139.349 100.144 -192.342 98.229 C-193.507 98.188 -194.672 98.147 -195.873 98.104 C-304.125 94.248 -304.125 94.248 -317.842 85.104 C-317.512 83.454 -317.182 81.804 -316.842 80.104 C-281.991 67.15 -238.568 69.562 -201.842 68.104 C-200.797 68.062 -200.797 68.062 -199.732 68.019 C-158.654 66.384 -117.522 66.049 -76.416 65.822 C-75.552 65.817 -74.687 65.813 -73.797 65.808 C-59.467 65.729 -45.137 65.659 -30.806 65.591 C33.182 65.332 33.182 65.332 97.158 64.104 C97.858 64.084 98.557 64.065 99.278 64.046 C107.303 63.826 115.325 63.556 123.346 63.229 C124.376 63.188 125.406 63.147 126.468 63.104 C171.33 63.386 171.33 63.386 214.158 53.104 C214.818 52.114 215.478 51.124 216.158 50.104 C140.122 25.333 44.368 35.308 -34.941 34.87 C-37.154 34.857 -39.367 34.845 -41.58 34.832 C-54.356 34.76 -67.131 34.692 -79.907 34.636 C-113.974 34.489 -148.018 34.154 -182.072 33.158 C-183.139 33.127 -183.139 33.127 -184.228 33.096 C-297.01 29.835 -297.01 29.835 -316.842 20.104 C-317.779 17.916 -317.779 17.916 -317.842 16.104 C-290.982 -8.454 -201.636 2.433 -167.111 1.542 C-166.027 1.514 -166.027 1.514 -164.92 1.486 C-147.68 1.046 -130.439 0.775 -113.195 0.555 C-112.382 0.544 -111.57 0.534 -110.733 0.523 C-73.822 0.043 -36.914 -0.031 0 0 Z " fill="#000000" transform="translate(1352.8417446799576,1669.8964613936841)"/>
<path d="M0 0 C5.597 0.006 11.194 0.002 16.791 -0.003 C75.067 -0.054 75.067 -0.054 99.847 2.443 C101.791 2.637 101.791 2.637 103.775 2.836 C133.234 5.978 133.234 5.978 142.159 15.818 C145.324 20.502 145.313 24.573 144.722 30.13 C142.959 35.479 139.676 38.61 134.722 41.13 C98.09 55.694 51.331 50.455 12.802 50.388 C8.024 50.38 3.246 50.383 -1.532 50.391 C-110.457 50.578 -110.457 50.578 -126.278 37.13 C-129.907 33.311 -130.588 30.248 -130.778 25.13 C-130.547 19.929 -130.177 16.852 -126.278 13.13 C-94.826 -8.644 -36.345 -0.037 0 0 Z " fill="#B8BABC" transform="translate(1313.2783203125,1308.86962890625)"/>
<path d="M0 0 C0 0.33 0 0.66 0 1 C-0.911 1.045 -1.821 1.09 -2.76 1.136 C-30.926 2.026 -30.926 2.026 -58 9 C-58.824 9.327 -59.647 9.655 -60.496 9.992 C-62.457 10.884 -64.244 11.748 -66 13 C-67.128 15.615 -67.128 15.615 -67 18 C-39.065 38.335 16.345 31.308 49.361 31.196 C53.387 31.185 57.414 31.185 61.44 31.186 C65.396 31.185 69.351 31.18 73.307 31.173 C75.158 31.17 77.01 31.168 78.862 31.167 C96.999 31.151 115.149 30.687 133.188 28.688 C134.362 28.559 135.536 28.43 136.746 28.297 C157.311 26.611 157.311 26.611 176 19 C176.801 16.441 176.801 16.441 177 14 C173.391 11.663 169.986 10.185 165.875 8.938 C164.841 8.617 163.807 8.296 162.742 7.965 C151.27 5.007 139.57 4.032 127.812 2.875 C125.984 2.692 124.155 2.508 122.326 2.324 C117.885 1.878 113.442 1.438 109 1 C109 0.67 109 0.34 109 0 C169.463 -1.941 169.463 -1.941 185 12 C189.439 16.894 190.362 19.911 190.277 26.395 C189.726 31.571 187.442 34.705 183.562 38.188 C148.231 56.163 96.335 49.325 58.08 49.257 C53.302 49.25 48.524 49.252 43.746 49.261 C-65.179 49.448 -65.179 49.448 -81 36 C-84.628 32.181 -85.31 29.117 -85.5 24 C-85.269 18.799 -84.898 15.721 -81 12 C-59.311 -3.016 -24.989 -0.414 0 0 Z " fill="#7C7B7C" transform="translate(1268,1310)"/>
<path d="M0 0 C0 0.33 0 0.66 0 1 C-0.911 1.045 -1.821 1.09 -2.76 1.136 C-33.482 1.95 -33.482 1.95 -62.438 11.125 C-63.096 11.458 -63.755 11.79 -64.434 12.133 C-65.995 12.903 -65.995 12.903 -67 14 C-67.154 16.598 -67.232 19.151 -67.25 21.75 C-67.271 22.467 -67.291 23.183 -67.312 23.922 C-67.346 28.498 -66.868 31.399 -64 35 C-62.316 36.521 -62.316 36.521 -60.375 37.625 C-59.458 38.201 -59.458 38.201 -58.523 38.789 C-51.793 42.019 -44.855 43.593 -37.5 44.625 C-36.645 44.75 -35.79 44.875 -34.909 45.003 C-26.629 46.156 -18.349 46.686 -10 47 C-10 47.33 -10 47.66 -10 48 C-65.258 49.719 -65.258 49.719 -81 36 C-84.704 32.204 -85.297 29.143 -85.5 24 C-85.269 18.799 -84.898 15.721 -81 12 C-59.311 -3.016 -24.989 -0.414 0 0 Z " fill="#35393C" transform="translate(1268,1310)"/>
<path d="M0 0 C60.463 -1.941 60.463 -1.941 76 12 C80.439 16.894 81.362 19.911 81.277 26.395 C80.726 31.571 78.442 34.705 74.562 38.188 C59.789 45.704 41.401 47.808 25 47 C25 46.67 25 46.34 25 46 C25.604 45.93 26.207 45.86 26.829 45.788 C47.842 43.809 47.842 43.809 66 34 C68.569 30.316 68.402 26.271 68.438 21.938 C68.487 20.858 68.487 20.858 68.537 19.756 C68.618 17.383 68.618 17.383 68 14 C64.779 11.196 60.927 10.167 56.875 8.938 C55.324 8.456 55.324 8.456 53.742 7.965 C42.27 5.007 30.57 4.032 18.812 2.875 C16.984 2.692 15.155 2.508 13.326 2.324 C8.885 1.878 4.442 1.438 0 1 C0 0.67 0 0.34 0 0 Z " fill="#373B3D" transform="translate(1377,1310)"/>
<path d="M0 0 C11.391 -0.103 22.648 -0.053 34 1 C34 1.66 34 2.32 34 3 C35.65 3 37.3 3 39 3 C39 3.33 39 3.66 39 4 C30.336 4.242 21.914 3.49 13.312 2.5 C12.027 2.357 10.741 2.214 9.416 2.066 C6.277 1.716 3.138 1.361 0 1 C0 0.67 0 0.34 0 0 Z " fill="#696A6C" transform="translate(1377,1310)"/>
</svg>